<svg width="2346" height="3190" viewBox="0 0 2346 3190" fill="none" xmlns="http://www.w3.org/2000/svg">
<g opacity="0.15">
<path fill-rule="evenodd" clip-rule="evenodd" d="M2346 320.612L2028.25 2.77785e-05C2028.25 2.77785e-05 1580.61 451.933 1244 791.581L1244 1528.31C1580.61 1868.07 2028.25 2320 2028.25 2320L2346 1999.28L1514.33 1159.95L2346 320.612Z" fill="url(#paint0_linear_1120_27940)"/>
<path fill-rule="evenodd" clip-rule="evenodd" d="M2346 320.612L2028.25 2.77785e-05C2028.25 2.77785e-05 1580.61 451.933 1244 791.581L1244 1528.31C1580.61 1868.07 2028.25 2320 2028.25 2320L2346 1999.28L1514.33 1159.95L2346 320.612Z" fill="url(#paint1_linear_1120_27940)"/>
</g>
<g opacity="0.15">
<path fill-rule="evenodd" clip-rule="evenodd" d="M-2.80288e-05 2869.39L317.749 3190C317.749 3190 765.39 2738.07 1102 2398.42L1102 1661.69C765.39 1321.93 317.749 870 317.749 870L-0.000174783 1190.72L831.668 2030.05L-2.80288e-05 2869.39Z" fill="url(#paint2_linear_1120_27940)"/>
<path fill-rule="evenodd" clip-rule="evenodd" d="M-2.80288e-05 2869.39L317.749 3190C317.749 3190 765.39 2738.07 1102 2398.42L1102 1661.69C765.39 1321.93 317.749 870 317.749 870L-0.000174783 1190.72L831.668 2030.05L-2.80288e-05 2869.39Z" fill="url(#paint3_linear_1120_27940)"/>
</g>
<defs>
<linearGradient id="paint0_linear_1120_27940" x1="2518" y1="1389.5" x2="1508.5" y2="409.5" gradientUnits="userSpaceOnUse">
<stop offset="0.361847" stop-color="#ED2637" stop-opacity="0.93"/>
<stop offset="0.688721" stop-color="#ED2637" stop-opacity="0"/>
<stop offset="0.78755" stop-color="#ED2637" stop-opacity="0"/>
</linearGradient>
<linearGradient id="paint1_linear_1120_27940" x1="1185.5" y1="1451" x2="1714" y2="1101.5" gradientUnits="userSpaceOnUse">
<stop stop-color="#131F2C"/>
<stop offset="1" stop-opacity="0"/>
</linearGradient>
<linearGradient id="paint2_linear_1120_27940" x1="446.328" y1="2057.64" x2="867.734" y2="2973.41" gradientUnits="userSpaceOnUse">
<stop offset="0.361847" stop-color="#ED2637" stop-opacity="0.93"/>
<stop offset="0.849378" stop-color="#ED2637" stop-opacity="0"/>
<stop offset="1" stop-color="#ED2637" stop-opacity="0"/>
</linearGradient>
<linearGradient id="paint3_linear_1120_27940" x1="1160.5" y1="1739" x2="632" y2="2088.5" gradientUnits="userSpaceOnUse">
<stop stop-color="#131F2C"/>
<stop offset="1" stop-opacity="0"/>
</linearGradient>
</defs>
</svg>
