<svg xmlns="http://www.w3.org/2000/svg" version="1.1" xmlns:xlink="http://www.w3.org/1999/xlink" xmlns:svgjs="http://svgjs.com/svgjs" width="512" height="512" x="0" y="0" viewBox="0 0 300 300" style="enable-background:new 0 0 512 512" xml:space="preserve"><g><circle cx="133.017" cy="155.335" r="4" fill="#dde6ed" data-original="#000000" opacity="1"></circle><circle cx="38.629" cy="137.711" r="4" fill="#dde6ed" data-original="#000000" opacity="1"></circle><path d="m259.637 247.901 4.562-4.562a4 4 0 1 0-5.656-5.656l-4.562 4.562-4.562-4.562a4 4 0 1 0-5.656 5.656l4.562 4.562-4.562 4.562a4 4 0 1 0 5.656 5.656l4.562-4.563 4.562 4.563c.781.781 1.805 1.172 2.828 1.172s2.047-.391 2.828-1.172a4 4 0 0 0 0-5.656zM81.219 80.883c7.719 0 14-6.281 14-14s-6.281-14-14-14-14 6.281-14 14 6.281 14 14 14zm0-20c3.309 0 6 2.691 6 6s-2.691 6-6 6-6-2.691-6-6c0-3.308 2.691-6 6-6zM244 206.446c8.211-16.545 12.98-36.041 13.855-57.905 1.336-33.463-7.973-60.432-27.668-80.156-34.668-34.725-88.441-32.5-88.934-32.471-8.793.336-15.684 7.77-15.359 16.564.312 8.643 7.73 15.537 16.512 15.412 1.676-.055 41.504-.674 65.23 23.201 13.07 13.148 19.207 32.047 18.242 56.168-1.828 45.719-22.504 66.436-39.527 75.766-23.074 12.646-53.785 12.26-76.422-.945-18.137-10.578-29.332-42.582-23.039-65.855 4.422-16.367 15.863-24.324 34.977-24.324 30.004 0 40.648 13.334 40.648 24.754 0 4.955-1.93 9.801-5.293 13.295-3.742 3.893-9.055 5.951-15.355 5.951-8.824 0-16 7.178-16 16s7.176 16 16 16c8.515 0 17.107-2.114 24.83-6.042.136-.057.253-.133.381-.204 15.559-8.068 27.438-23.653 27.438-45.001 0-23.355-15.409-46.834-49.086-54.287a3.744 3.744 0 0 0-.444-.087c-6.946-1.502-14.601-2.38-23.119-2.38-33.617 0-57.625 17.486-65.871 47.973-10.098 37.361 7.215 84.002 37.809 101.848 16.152 9.422 35.25 14.402 55.234 14.402 18.914 0 37.133-4.508 52.691-13.035 18.317-10.039 32.489-25.144 42.052-44.21.079-.143.157-.278.218-.432zm-19.16 15.124c-9.138-3.934-9.439-12.849-9.444-13.75a82.698 82.698 0 0 0 5.677-8.986c2.961 3.178 7.509 7.082 13.135 8.985a98.064 98.064 0 0 1-9.368 13.751zm.017-30.619a98.022 98.022 0 0 0 2.651-6.979c3.55 1.948 9.142 4.332 15.294 4.393-1.419 4.239-3.024 8.329-4.848 12.23-6.158-1.483-11.129-7.108-13.097-9.644zm-7.322-100.712c3.633-1.754 8.328-5.087 11.582-11.16a81.485 81.485 0 0 1 8.453 12.033c-3.608 3.869-10.34 6.277-14.314 7.293a65.44 65.44 0 0 0-5.721-8.166zm-15.173-13.695c3.018-2.6 6.697-6.881 8.881-13.383a88.421 88.421 0 0 1 11.901 9.562c-3.019 7.944-9.161 10.565-11.451 11.25a71.544 71.544 0 0 0-9.331-7.429zm-15.188-8.038c2.535-3.17 5.223-8.004 6.247-14.819a106.43 106.43 0 0 1 10.701 5.139c-2.13 8.186-7.211 12.101-9.197 13.321-2.566-1.343-5.153-2.575-7.751-3.641zm-15.821-5.08c3.582-5.483 3.794-11.594 3.323-15.774a129.54 129.54 0 0 1 10.983 3.137c-.773 8.335-4.583 12.949-6.631 14.798-2.608-.823-5.182-1.56-7.675-2.161zm70.015 35.11c2.171 4.825 3.928 9.932 5.278 15.313-4.38 3.111-11.672 3.348-15.851 3.027-1.034-3.913-2.282-7.668-3.833-11.199 3.921-1.148 9.852-3.378 14.406-7.141zm-7.497 49.044c.024-.599-.012-1.156.004-1.749 1.926.319 4.375.6 7.176.6a38.03 38.03 0 0 0 8.87-1.032c-.02.941-.02 1.869-.058 2.821-.151 3.774-.467 7.444-.857 11.065-7.795 1.807-13.749-.983-15.815-2.194.31-3.06.549-6.217.68-9.511zm16.005-10.508c-6.408 2.073-12.925 1.255-16 .629-.175-4.448-.684-8.658-1.36-12.748.421.011.81.03 1.269.03 4.16 0 9.755-.551 14.584-2.853.794 4.79 1.307 9.765 1.507 14.942zm-17.781 28.378c2.87 1.232 6.964 2.474 11.917 2.474 1.235 0 2.523-.081 3.855-.255-.705 4.287-1.556 8.472-2.608 12.506-6.275.964-12.664-2.382-15.417-4.096.864-3.374 1.642-6.881 2.253-10.629zM142.098 59.895c-2.995 0-5.625-1.618-7.061-3.994h10.83c2.211 0 4-1.791 4-4s-1.789-4-4-4h-10.888c1.334-2.291 3.765-3.885 6.626-3.994.218-.018 10.498-.439 24.661 2.021.574 2.362 1.918 10.001-3.228 15.145-.172.172-.253.39-.388.584-9.496-1.595-16.902-1.771-19.483-1.771-.679-.001-.917.009-1.069.009zm13.781 196.008c-3.135-6.292 1.583-14.172 2.945-16.216 4.362-.47 8.67-1.292 12.891-2.396-1.12 4.633-1.828 10.908.361 16.315-5.273 1.159-10.681 1.954-16.197 2.297zm-6.437-15.721c-1.889 4.146-3.574 9.995-2.02 15.891-6.692-.097-13.264-.778-19.626-2.05-.486-7.392 5.379-13.32 7.169-14.931a91.35 91.35 0 0 0 14.477 1.09zm-38.325-8.215c.078-.028.128-.091.203-.123a82.638 82.638 0 0 0 14.494 5.354c-2.765 3.468-5.737 8.612-6.051 14.853-7.595-2.169-14.826-5.165-21.496-9.008 1.375-5.696 9.581-9.893 12.85-11.076zm-41.062-59.164c2.184 0 4.587-.286 7.132-.89.067 3.018.28 6.052.713 9.08-3.195 1.774-10.303 2.528-15.908 2.579-.577-4.049-.852-8.127-.884-12.191a28.713 28.713 0 0 0 8.947 1.422zm8.992-18.131c-.739 2.846-1.241 5.792-1.547 8.795-7.918 2.615-13.826.57-16.081-.524.406-4.411 1.162-8.76 2.304-12.981.133-.492.304-.953.447-1.438 3.237 2.701 8.206 5.616 14.877 6.148zm-15.531 36.886c4.446-.1 10.976-.627 15.99-2.542.699 2.828 1.514 5.621 2.5 8.337l-15.197 5.445c-1.328-3.655-2.412-7.421-3.293-11.24zm21.629 13.168a71.308 71.308 0 0 0 4.744 8.374c-4.191 2.045-9.593 6.02-13.347 8.973a87.228 87.228 0 0 1-6.665-11.876zm27.299-96.247c-.862 5.304.753 11.46 2.326 15.817-3.467.377-6.708 1.045-9.726 1.988-4.955-4.042-4.621-11.728-4.108-15.461 3.629-1.094 7.479-1.865 11.508-2.344zm9.423-.578c5.336 0 10.297.37 14.937 1.027-2.836 5.206-2.438 11.194-.988 16.029-3.832-.601-8.022-.955-12.609-1.014-2.441-5.77-4.101-13.12-2.171-16.015.281-.003.549-.027.831-.027zm38.451 8.224c-4.447 4.444-6.255 9.942-6.948 14.348-2.379-1.265-5.05-2.375-8.002-3.316-.042-.086-.041-.182-.09-.266-.139-.24-1.827-3.236-2.405-6.877l.824-6.95a9.065 9.065 0 0 1 1.769-2.451c5.543 1.378 10.475 3.254 14.852 5.512zm-63.132 13.507a35.462 35.462 0 0 0-7.314 5.488 10.755 10.755 0 0 1-3.006-1.367l-4.902-6.51c-.775-2.059-1.121-4.049-1.271-5.417 3.566-3.113 7.574-5.723 11.974-7.82-.107 4.711.715 10.804 4.519 15.626zm73.115 30.239c.128-1.066.215-2.138.215-3.217 0-2.107-.278-4.261-.801-6.412 1.18-2.018 6.056-9.588 13.234-10.787a43.405 43.405 0 0 1 3.567 17.199c0 1.719-.095 3.391-.272 5.02-5.045-3.145-11.044-3.013-15.943-1.803zm-32.438 38.914 9.27-3.09a4 4 0 0 0 2.527-5.061 3.986 3.986 0 0 0-5.059-2.529l-10.712 3.571c.122-4.306 3.644-7.776 7.977-7.776 5.036 0 9.627-1.038 13.645-2.999 1.85 1.463 4.719 5.341 5.473 14.828-6.034 2.713-12.603 4.171-19.117 4.171-1.465.001-2.821-.424-4.004-1.115zm30.69-7.344c-1.126-7.626-3.62-12.362-6.336-15.223.254-.244.526-.466.771-.721a26.51 26.51 0 0 0 4.36-6.083c.133-.054.276-.053.405-.123.069-.034 4.238-2.214 8.727-2.235l3.131.381c1.727.476 3.361 1.453 4.696 3.147-2.953 8.84-8.664 15.882-15.754 20.857zm10.382-59.226c-5.815 1.802-10.183 5.938-12.975 9.417-1.336-2.047-3.005-4.003-5.007-5.833-.047-3.164.524-10.714 6.511-15.321 4.738 3.433 8.534 7.414 11.471 11.737zm-104.876-3.359c1.644 4.976 4.861 10.073 10.515 12.783a40.917 40.917 0 0 0-2.723 5.025c-7.924.221-12.855-4.23-14.697-6.344a55.418 55.418 0 0 1 6.905-11.464zm7.286 99.616c5.386-4.22 11.453-8.384 13.241-8.751.083-.012.146-.064.227-.081a47.441 47.441 0 0 0 8.125 7.376c-4.006 2.25-9.104 5.998-11.534 11.331-3.631-2.855-6.989-6.178-10.059-9.875zm98.691 23.076c-2.853-5.026-.427-13.73 1.01-17.265 3.141-1.229 6.206-2.628 9.148-4.241.605-.332 1.223-.713 1.836-1.071.404 4.409 1.964 10.15 6.839 14.516-.333.188-.646.402-.983.586-5.602 3.07-11.594 5.558-17.85 7.475zm26.09-12.643c-7.689-4.738-6.131-14.743-6.056-15.182.009-.052-.011-.1-.004-.151a75.977 75.977 0 0 0 8.842-7.966c1.644 4.357 4.825 9.033 10.449 12.168-4.031 4.13-8.468 7.823-13.231 11.131z" fill="#dde6ed" data-original="#000000" opacity="1"></path></g></svg>