<svg xmlns="http://www.w3.org/2000/svg" version="1.1" xmlns:xlink="http://www.w3.org/1999/xlink" xmlns:svgjs="http://svgjs.com/svgjs" width="512" height="512" x="0" y="0" viewBox="0 0 300 300" style="enable-background:new 0 0 512 512" xml:space="preserve"><g><circle cx="60" cy="192" r="4" fill="#dde6ed" data-original="#000000" opacity="1"></circle><circle cx="56" cy="252" r="4" fill="#dde6ed" data-original="#000000" opacity="1"></circle><circle cx="176" cy="40" r="4" fill="#dde6ed" data-original="#000000" opacity="1"></circle><path d="M134.219 249.781a4 4 0 0 0-5.656 0L124 254.344l-4.562-4.562a4 4 0 1 0-5.656 5.656l4.562 4.562-4.562 4.562a4 4 0 1 0 5.656 5.656l4.562-4.562 4.562 4.562c.781.781 1.805 1.172 2.828 1.172s2.047-.391 2.828-1.172a4 4 0 0 0 0-5.656L129.656 260l4.562-4.562a4 4 0 0 0 .001-5.657zM172 100c0-39.701-32.301-72-72-72s-72 32.299-72 72 32.301 72 72 72 72-32.299 72-72zm-136 0c0-35.289 28.711-64 64-64s64 28.711 64 64-28.711 64-64 64-64-28.711-64-64zM208 144c-35.289 0-64 28.711-64 64s28.711 64 64 64 64-28.711 64-64-28.711-64-64-64zm0 120c-30.879 0-56-25.121-56-56s25.121-56 56-56 56 25.121 56 56-25.121 56-56 56z" fill="#dde6ed" data-original="#000000" opacity="1"></path><path d="M77.641 108.057c.402-1.572 1.272-2.911 2.436-4.113.009 1.487.19 3.069.568 4.756 2.582 11.568 13.133 27.143 24.043 27.143.812 0 1.629-.086 2.445-.268 11.734-2.621 15.324-23.156 12.547-35.59-.376-1.687-.885-3.195-1.509-4.544 1.562.594 2.918 1.433 3.95 2.682 7.312 8.865 1.727 32.176-1.039 40.412a4 4 0 1 0 7.578 2.552c1.074-3.18 9.487-29.399 1.946-44.379 7.355 6.032 8.312 16.666 8.332 16.891a3.997 3.997 0 0 0 4.269 3.697 4 4 0 0 0 3.707-4.273c-.039-.594-1.148-14.639-11.676-22.877-3.526-2.757-7.653-4.482-12.303-5.24 9.448-9.813 10.785-22.405 9.771-28.977-.336-2.184-2.367-3.662-4.562-3.344a4 4 0 0 0-3.344 4.562c.022.155 1.795 12.78-7.872 22.504.904-5.514.82-13.529-2.413-24.686a4.002 4.002 0 0 0-7.687 2.226c2.957 10.199 2.889 17.092 2.139 21.4-3.712-4.489-9.702-6.841-15.775-5.484a15.909 15.909 0 0 0-10.023 7.039c-.917 1.446-1.516 3.017-1.93 4.629-2.511-3.58-5.502-9.791-7.164-20.272a4.011 4.011 0 0 0-4.574-3.326 3.996 3.996 0 0 0-3.324 4.576c1.82 11.499 5.162 18.794 8.332 23.399-12.755-4.581-16.538-16.45-16.724-17.062a3.998 3.998 0 0 0-7.668 2.276c1.876 6.379 8.44 17.206 21.163 22.069-3.886 2.664-6.884 5.982-8.901 9.979-6.023 11.93-1.055 25.111-.84 25.668a4.001 4.001 0 0 0 5.171 2.291 4.002 4.002 0 0 0 2.289-5.174c-.039-.1-3.799-10.111.361-18.825-.46 16.765 18.31 36.923 20.635 39.346a3.99 3.99 0 0 0 2.887 1.23 4 4 0 0 0 2.887-6.769c-6.007-6.263-20.976-24.966-18.128-36.124zm27.75 19.709c-5.117 1.172-14.645-10.52-16.941-20.809-1.125-5.053.453-6.465 1.129-7.066 1.809-1.619 5.316-2.57 8.84-3.355 2.457-.549 4.945-1.023 7.012-1.023.898 0 1.715.09 2.418.299.867.26 2.898.865 4.027 5.916 2.292 10.288-1.341 24.889-6.485 26.038zM89.922 84.438a7.95 7.95 0 0 1 5.012-3.52c4.312-.971 8.59 1.76 9.551 6.064.044.2.054.402.083.604-2.683.098-5.393.584-7.892 1.14-2.493.556-5.151 1.269-7.62 2.32-.059-.195-.144-.378-.188-.58a7.941 7.941 0 0 1 1.054-6.028zM231.98 169.9l-9.173 5.4a23.923 23.923 0 0 0-5.288-2.09 24.233 24.233 0 0 0-5.646-.742l-5.397-9.166a3.994 3.994 0 0 0-5.477-1.418 4 4 0 0 0-1.414 5.477l3.824 6.495a24.228 24.228 0 0 0-4.082 1.909 23.847 23.847 0 0 0-11.055 14.664c-.27 1.037-.385 2.115-.515 3.187-6.739 4.723-11.612 11.746-13.743 19.985-2.266 8.74-1.203 17.799 2.98 25.502 4.238 7.797 11.156 13.275 19.48 15.43 2.527.652 5.09.977 7.641.977 5.855 0 11.664-1.703 16.879-5.021 7.395-4.705 12.715-12.113 14.977-20.855 2.189-8.464 1.134-16.956-2.314-24.077.411-1.003.803-2.022 1.083-3.097 2.063-7.972-.153-16.06-5.205-21.834l6.506-3.83a4 4 0 0 0 1.414-5.477c-1.111-1.903-3.56-2.538-5.475-1.419zm-3.75 57.729c-1.754 6.773-5.852 12.496-11.531 16.111-5.594 3.555-12.055 4.643-18.219 3.047-4.701-1.215-8.797-3.894-11.883-7.681 3.318-.252 6.264-2.538 7.145-5.939a8 8 0 0 0-5.741-9.749c-2.553-.661-5.122.009-7.026 1.55a27.862 27.862 0 0 1 .783-9.362c1.754-6.773 5.848-12.496 11.531-16.111 3.91-2.486 8.246-3.764 12.605-3.764 1.875 0 3.758.236 5.613.717 6.597 1.706 11.769 6.255 14.76 12.151-2.985-.426-5.877 1.42-6.651 4.407a6.001 6.001 0 0 0 4.306 7.312c1.862.482 3.732.014 5.148-1.074.14 2.741-.11 5.563-.84 8.385zm-14.718-38.928c-5.351-1.379-10.854-1.263-16.092.245 1.369-2.581 3.386-4.768 5.967-6.288a15.875 15.875 0 0 1 12.125-1.701c7.306 1.889 12.089 8.566 11.954 15.792-3.773-3.793-8.501-6.636-13.954-8.048z" fill="#dde6ed" data-original="#000000" opacity="1"></path><path d="M198.82 205.559a6 6 0 1 0-3.006 11.619 6 6 0 0 0 3.006-11.619zM213.24 221.685a8 8 0 1 0-4.007 15.491 8 8 0 0 0 4.007-15.491zM224 136c24.262 0 44-19.738 44-44s-19.738-44-44-44-44 19.738-44 44 19.738 44 44 44zm0-80c19.852 0 36 16.15 36 36s-16.148 36-36 36-36-16.15-36-36 16.148-36 36-36z" fill="#dde6ed" data-original="#000000" opacity="1"></path><path d="M204 88c-2.211 0-4 1.791-4 4s1.789 4 4 4h4c0 1.887.387 3.672.989 5.354l-3.817 3.817a4 4 0 1 0 5.656 5.656l2.771-2.771C216.403 110.48 220.011 112 224 112s7.597-1.52 10.401-3.942l2.771 2.771c.781.781 1.805 1.172 2.828 1.172s2.047-.391 2.828-1.172a4 4 0 0 0 0-5.656l-3.817-3.817c.602-1.684.989-3.469.989-5.356h4c2.211 0 4-1.791 4-4s-1.789-4-4-4h-4c0-1.784-.361-3.472-.902-5.076l6.691-3.346a4 4 0 0 0 1.789-5.367 4.002 4.002 0 0 0-5.367-1.789l-7.52 3.76C231.852 73.611 228.125 72 224 72s-7.852 1.611-10.691 4.182l-7.52-3.76a4 4 0 0 0-5.367 1.789 4 4 0 0 0 1.789 5.367l6.691 3.346C208.361 84.528 208 86.216 208 88zm12 0c0-4.412 3.59-8 8-8s8 3.588 8 8v8c0 4.412-3.59 8-8 8s-8-3.588-8-8zM120 220c0-13.234-10.766-24-24-24s-24 10.766-24 24 10.766 24 24 24 24-10.766 24-24zm-24 16c-8.824 0-16-7.178-16-16s7.176-16 16-16 16 7.178 16 16-7.176 16-16 16z" fill="#dde6ed" data-original="#000000" opacity="1"></path></g></svg>