<svg xmlns="http://www.w3.org/2000/svg" version="1.1" xmlns:xlink="http://www.w3.org/1999/xlink" xmlns:svgjs="http://svgjs.com/svgjs" width="512" height="512" x="0" y="0" viewBox="0 0 404 404.6" style="enable-background:new 0 0 512 512" xml:space="preserve" class=""><g><path d="M365.848 43.86c11.886 0 21.55-9.669 21.55-21.555 0-11.887-9.664-21.555-21.55-21.555-11.887 0-21.555 9.668-21.555 21.555 0 11.886 9.668 21.554 21.555 21.554zm0-29.454c4.351 0 7.898 3.547 7.898 7.899 0 4.355-3.547 7.902-7.898 7.902-4.356 0-7.903-3.547-7.903-7.902 0-4.352 3.547-7.899 7.903-7.899zM31.34 335.258c-11.887 0-21.555 9.668-21.555 21.555s9.668 21.554 21.555 21.554 21.555-9.668 21.555-21.555-9.668-21.554-21.555-21.554zm0 29.453c-4.356 0-7.903-3.547-7.903-7.899 0-4.355 3.547-7.902 7.903-7.902 4.351 0 7.898 3.547 7.898 7.902 0 4.352-3.547 7.899-7.898 7.899zM21.418 117.879c0 5.832-4.727 10.558-10.559 10.558S.301 123.712.301 117.88s4.726-10.559 10.558-10.559 10.559 4.727 10.559 10.559zM396.887 104.227c0 5.832-4.73 10.558-10.563 10.558-5.828 0-10.558-4.726-10.558-10.558s4.73-10.559 10.558-10.559c5.832 0 10.563 4.727 10.563 10.559zM21.273 35.785a6.796 6.796 0 0 0 4.829 2 6.787 6.787 0 0 0 4.824-2l7.238-7.242 7.242 7.242a6.803 6.803 0 0 0 4.824 2 6.828 6.828 0 0 0 4.828-11.652L47.82 18.89l7.239-7.239a6.828 6.828 0 0 0 0-9.652 6.82 6.82 0 0 0-9.653 0l-7.242 7.238L30.926 2a6.82 6.82 0 0 0-9.653 0 6.828 6.828 0 0 0 0 9.652l7.239 7.239-7.239 7.242a6.82 6.82 0 0 0 0 9.652zM383.238 166.473c-4.738-6.067-10.906-9.036-15.847-10.48 2.882-16.266-3.84-27.337-10.524-34.02-4.62-4.621-9.77-7.653-13.355-9.41-.774-14.813-5.414-25.38-13.828-31.446-7.84-5.652-16.868-5.738-22.559-4.972-18.074-30.633-48.102-29.743-66.441-23.38-5.54-11.988-17.715-20.081-31.368-20.081s-25.82 8.093-31.359 20.082c-18.34-6.364-48.367-7.254-66.441 23.379-5.684-.762-14.711-.676-22.559 4.972-8.414 6.067-13.055 16.633-13.828 31.445-3.586 1.754-8.734 4.79-13.352 9.41-6.687 6.684-13.406 17.75-10.527 34.02-4.941 1.446-11.11 4.414-15.848 10.48-7.039 9.012-8.765 21.88-5.152 38.266-3.23 6.223-9.848 22.496-5.223 44.621 3.942 18.832 15.223 36.215 31.762 48.934l29.387 22.605c-.008.133-.074.239-.074.368 0 45.957 37.378 83.336 83.324 83.336h79.773c45.953 0 83.336-37.38 83.336-83.336 0-.13-.066-.239-.074-.368l29.387-22.605c16.539-12.719 27.82-30.102 31.757-48.941 4.63-22.125-1.992-38.391-5.218-44.614 3.617-16.386 1.89-29.254-5.149-38.265zm-61.472-74.227c5.367 3.922 8.207 12.52 8.207 24.86 0 2.921 1.882 5.519 4.64 6.464 2.57.883 23.617 8.832 19.117 31.11-.136.168-.324.27-.445.453L230.137 345.457 309.738 89.59c3.352-.344 8.14-.188 12.028 2.656zm-25.082-6.66L220.8 329.496l21.902-262.871c9.207-3.738 37.559-11.965 53.98 18.96zM209.32 46.34c9.567 0 17.871 6.59 20.184 15.773-.035.203-.149.375-.164.586l-20.508 246.04-20.39-244.626c.14-.36.343-.687.421-1.074 1.961-9.68 10.57-16.7 20.457-16.7zm-34.394 19.898 21.937 263.258-75.535-242.805c15.777-31.246 43.39-24.347 53.598-20.453zm-90.922 57.34a6.814 6.814 0 0 0 4.668-6.473c0-12.34 2.84-20.94 8.207-24.859 3.016-2.2 6.586-2.808 9.601-2.808.508 0 .95.046 1.422.078l79.63 255.941L65.507 156.875c-6.352-23.918 15.879-32.395 18.496-33.297zm-45.61 122.988c-4.62-22.132 4.434-36.441 4.793-37a6.832 6.832 0 0 0 .942-5.441c-3.274-13.125-2.602-23.2 1.957-29.145 3.184-4.156 7.824-5.73 10.773-6.335l140.184 216.648c-4.8-1.395-9.371-3.547-13.363-6.621L65.113 287.465c-13.953-10.727-23.441-25.258-26.718-40.899zm62.286 85.489 74.672 57.437c.71.547 1.515.942 2.253 1.453h-8.175c-34.739 0-63.535-25.59-68.75-58.89zm148.527 58.89h-8.164c.73-.507 1.535-.902 2.242-1.449l74.676-57.441c-5.211 33.3-34.012 58.89-68.754 58.89zM380.25 246.56c-3.277 15.648-12.766 30.183-26.719 40.906L234.957 378.68c-4.305 3.312-9.293 5.53-14.516 6.886l140.47-217.086c2.788.438 8.003 1.832 11.562 6.391 4.64 5.938 5.34 16.047 2.043 29.254a6.832 6.832 0 0 0 .941 5.441c.098.141 9.484 14.567 4.793 36.993zm0 0" fill="#dde6ed" data-original="#000000" opacity="1" class=""></path></g></svg>