<svg xmlns="http://www.w3.org/2000/svg" version="1.1" xmlns:xlink="http://www.w3.org/1999/xlink" xmlns:svgjs="http://svgjs.com/svgjs" width="512" height="512" x="0" y="0" viewBox="0 0 300 300" style="enable-background:new 0 0 512 512" xml:space="preserve" class=""><g><path d="m100.966 105.661-2.828 2.828-2.828-2.828a4 4 0 1 0-5.656 5.656l2.828 2.828-2.828 2.828a4 4 0 1 0 5.656 5.656l2.828-2.828 2.828 2.828c.781.781 1.805 1.172 2.828 1.172s2.047-.391 2.828-1.172a4 4 0 0 0 0-5.656l-2.828-2.828 2.828-2.828a4 4 0 1 0-5.656-5.656zM94.138 78.146c6.617 0 12-5.383 12-12s-5.383-12-12-12-12 5.383-12 12 5.383 12 12 12zm0-16c2.205 0 4 1.795 4 4s-1.795 4-4 4-4-1.795-4-4 1.795-4 4-4zM222.138 234.146c-6.617 0-12 5.383-12 12s5.383 12 12 12 12-5.383 12-12-5.383-12-12-12zm0 16c-2.207 0-4-1.795-4-4s1.793-4 4-4 4 1.795 4 4-1.793 4-4 4z" fill="#dde6ed" data-original="#000000" opacity="1"></path><circle cx="46.138" cy="114.146" r="4.292" fill="#dde6ed" data-original="#000000" opacity="1"></circle><circle cx="198.138" cy="46.146" r="4.292" fill="#dde6ed" data-original="#000000" opacity="1"></circle><circle cx="138.138" cy="66.146" r="4.292" fill="#dde6ed" data-original="#000000" opacity="1"></circle><circle cx="78.138" cy="246.146" r="4.292" fill="#dde6ed" data-original="#000000" opacity="1"></circle><path d="M261.243 172.368c-.422-.49-.856-.969-1.363-1.398-11.219-9.51-29.266-22.486-51.52-30.297-11.73-4.119-23.328-6.307-34.68-6.506-12.418-12.766-35.145-21.393-36.137-21.766a3.978 3.978 0 0 0-4.068.76 4.003 4.003 0 0 0-1.219 3.955l2.347 9.385c-1.472-.202-2.956-.356-4.466-.356-15.439 0-28 10.766-28 24 0 2.331.393 4.616 1.153 6.823-9.293 6.026-16.639 11.994-21.447 16.226-1.057-6.362-3.687-15.257-10.28-21.846-11.252-11.25-29.188-10.982-29.932-11a4.003 4.003 0 0 0-3.918 3.918c-.016.756-.254 18.682 10.998 29.934 2.312 2.314 5.104 4.311 8.287 5.945-3.184 1.635-5.975 3.631-8.287 5.945-11.252 11.252-11.014 29.178-10.998 29.934a4.003 4.003 0 0 0 3.918 3.918c.045 0 .152.002.316.002 2.572 0 19.039-.426 29.615-11.002 5.478-5.476 8.216-12.546 9.596-18.436 3.529 3.148 8.487 7.277 14.582 11.677-1.046 2.55-1.604 5.216-1.604 7.962 0 13.234 12.561 24 28 24 .505 0 1.004-.058 1.508-.081l-3.254 8.676a4 4 0 0 0 4.412 5.347c.818-.137 19.85-3.488 38.529-18.352 2.992.271 5.945.408 8.805.408 13.387 0 27.301-2.836 41.359-8.428 19.57-7.783 35.508-19.312 45.434-27.613a4.006 4.006 0 0 0 1.426-3.344 4.007 4.007 0 0 0-1.871-3.117l-7.738-4.836 9.215-3.951c1.172-.502 1.945-1.633 2.234-2.875s-.12-2.644-.952-3.611zm-151.105-22.222c0-8.822 8.973-16 20-16 2.284 0 4.493.37 6.621.973l1.211 4.841c-10.105 3.359-19.389 7.875-27.565 12.64-.157-.809-.267-1.626-.267-2.454zM74.554 180.54a4.76 4.76 0 0 0-.049.434c-.248 4.371-1.582 15.299-8.598 22.312-5.939 5.939-14.762 7.807-19.93 8.391.586-5.166 2.453-13.99 8.391-19.93 4.613-4.615 11.002-6.729 15.549-7.688a4 4 0 0 0 0-7.828c-4.547-.959-10.936-3.072-15.549-7.688-5.939-5.939-7.805-14.764-8.391-19.93 5.168.584 13.99 2.451 19.93 8.391 7.016 7.014 8.35 17.941 8.598 22.312a4 4 0 0 0 .051.443l-.006.504zm47.584 45.606c-11.027 0-20-7.178-20-16 0-1.106.164-2.191.442-3.257 7.511 4.919 16.282 9.869 26.03 13.937l-1.821 4.855a24.649 24.649 0 0 1-4.651.465zm40.375-4.526a3.933 3.933 0 0 0-2.969.893c-10.742 8.869-21.93 13.521-28.943 15.789l6.873-18.33a3.998 3.998 0 0 0-2.309-5.139c-25.023-9.609-44-25.84-51.297-32.686 7.654-7.168 30.645-26.9 60.039-35.674a3.995 3.995 0 0 0 2.734-4.803l-4.672-18.686c7.797 3.6 20.008 10.047 26.98 17.834.758.848 2.051 1.326 3.188 1.326 9.253 0 18.883 1.592 28.672 4.559-5.677 9.556-8.672 20.316-8.672 31.441 0 13.916 4.617 27.239 13.102 38.103-11.293 3.91-22.406 5.897-33.102 5.897a91.14 91.14 0 0 1-9.624-.524zm78.051-43.15c-1.371.586-2.301 1.885-2.414 3.369s.605 2.91 1.867 3.699l9.473 5.92c-8.96 7.032-21.517 15.45-36.348 21.72-8.374-9.785-13.003-22.098-13.003-35.033 0-10.245 2.934-20.134 8.459-28.812 18.123 6.882 33.239 17.368 42.381 24.672z" fill="#dde6ed" data-original="#000000" opacity="1"></path><circle cx="218.138" cy="166.146" r="4.292" fill="#dde6ed" data-original="#000000" opacity="1"></circle><path d="M160.138 166.146c-10.469 0-30 5.496-30 16s19.531 16 30 16c14 0 14-9.629 14-16s0-16-14-16zm0 24c-10.492 0-22-5.615-22-8s11.508-8 22-8c6 0 6 1.221 6 8s0 8-6 8zM194.138 114.146c8.824 0 16-7.178 16-16s-7.176-16-16-16-16 7.178-16 16 7.176 16 16 16zm0-24c4.41 0 8 3.588 8 8s-3.59 8-8 8-8-3.588-8-8 3.59-8 8-8z" fill="#dde6ed" data-original="#000000" opacity="1"></path></g></svg>