<svg xmlns="http://www.w3.org/2000/svg" version="1.1" xmlns:xlink="http://www.w3.org/1999/xlink" xmlns:svgjs="http://svgjs.com/svgjs" width="512" height="512" x="0" y="0" viewBox="0 0 300 300" style="enable-background:new 0 0 512 512" xml:space="preserve" class=""><g><circle cx="150" cy="72" r="4" fill="#dde6ed" data-original="#000000" class="" opacity="1"></circle><path d="M104 60c7.719 0 14-6.281 14-14s-6.281-14-14-14-14 6.281-14 14 6.281 14 14 14zm0-20c3.309 0 6 2.691 6 6s-2.691 6-6 6-6-2.691-6-6 2.691-6 6-6zM46 71.512c2.211 0 4-1.789 4-4v-5.66c0-2.211-1.789-4-4-4s-4 1.789-4 4v5.66c0 2.211 1.789 4 4 4zM46 94.148c2.211 0 4-1.789 4-4v-5.66c0-2.211-1.789-4-4-4s-4 1.789-4 4v5.66c0 2.211 1.789 4 4 4zM31.851 80h5.66c2.211 0 4-1.789 4-4s-1.789-4-4-4h-5.66c-2.211 0-4 1.789-4 4s1.79 4 4 4zM54.488 80h5.66c2.211 0 4-1.789 4-4s-1.789-4-4-4h-5.66c-2.211 0-4 1.789-4 4s1.789 4 4 4zM277.695 186.473l-19.164-46.332a15.92 15.92 0 0 0-.281-.59c-5.922-11.84-11.035-22.062-22.77-29.531a72.051 72.051 0 0 0-58.988-8.332l-34.48 10.141-31.23-9.371c-6.215-1.855-12.84.207-16.883 5.266l-26.547 33.184-23.23 13.277a18.175 18.175 0 0 0-7.656 8.582l-9.172 21.398a8.487 8.487 0 0 0 .742 8.098l5.234 7.852-10.7 17.826a4 4 0 0 0 1.031 5.258l16 12a4.012 4.012 0 0 0 3.297.699l26-6a3.998 3.998 0 0 0 2.98-2.93l3.496-13.98 19.793-7.613 8.676 36.441-3.008 9.02-10.102 3.371A3.996 3.996 0 0 0 88 258v6c0 2.211 1.789 4 4 4h54c.621 0 1.234-.145 1.789-.422l8-4a3.993 3.993 0 0 0 2.133-2.793l4-20a3.952 3.952 0 0 0 0-1.57l-6.283-31.416 28.869 10.591 12.836 17.973-6.18 12.367-10.43 3.477A3.996 3.996 0 0 0 178 256v8c0 2.211 1.789 4 4 4h16c.789 0 1.562-.234 2.219-.672l36-24A4.001 4.001 0 0 0 238 240v-6.344l6 6v7.707l-11.574 4.961A3.994 3.994 0 0 0 230 256v8c0 2.211 1.789 4 4 4h40c2.211 0 4-1.789 4-4v-76c0-.523-.102-1.043-.305-1.527zm-127.234 70.824L145.055 260h-13.896l12.248-19.902c.277-.453.461-.953.543-1.473l4.279-27.091L153.922 240zM230 237.859 196.789 260H186v-1.117l9.266-3.09a3.995 3.995 0 0 0 2.312-2.004l8-16a3.991 3.991 0 0 0-.324-4.113l-7.7-10.78c10.612 2.696 17.792.833 27.364-2.321l5.082 5.082zM270 260h-32v-1.363l11.574-4.961A3.994 3.994 0 0 0 252 250v-12a3.998 3.998 0 0 0-1.172-2.828l-22-22c-13.539-13.539-3.812-30.414-3.391-31.125a4.001 4.001 0 0 0-6.867-4.106c-4.196 6.992-8.66 22.559.615 36.061-7.879 2.446-13.283 3.262-21.908.557l-49.898-18.312a4.027 4.027 0 0 0-3.406.305 3.993 3.993 0 0 0-1.922 2.824l-5.879 37.211L121.766 260H98.648l6.617-2.207a3.973 3.973 0 0 0 2.527-2.527l4-12c.238-.707.27-1.469.098-2.191L102 199.534V168c0-2.211-1.789-4-4-4s-4 1.789-4 4v29.251l-23.438 9.014a3.992 3.992 0 0 0-2.441 2.766l-3.406 13.621-10.024 2.313 6.138-6.138a4 4 0 1 0-5.656-5.656l-13.546 13.546-10.341-7.753 10.145-16.906a3.992 3.992 0 0 0-.102-4.277l-6.641-9.961a.536.536 0 0 1-.043-.504l9.172-21.402a10.145 10.145 0 0 1 4.27-4.785l23.898-13.656c.438-.25.824-.582 1.141-.973l27.023-33.781a7.78 7.78 0 0 1 8.336-2.598l32.367 9.711a3.925 3.925 0 0 0 2.277.004l35.621-10.477a64.021 64.021 0 0 1 52.434 7.41c9.867 6.281 14.301 15.141 19.957 26.426L270 188.793z" fill="#dde6ed" data-original="#000000" class="" opacity="1"></path><circle cx="46" cy="196" r="4" fill="#dde6ed" data-original="#000000" class="" opacity="1"></circle><path d="M66 156a16.016 16.016 0 0 0-14.031 8.309 4 4 0 0 0 7.008 3.852A8.024 8.024 0 0 1 66 164c4.41 0 8 3.59 8 8a8.004 8.004 0 0 1-2.043 5.34 4.002 4.002 0 0 0 2.98 6.668 3.983 3.983 0 0 0 2.98-1.332A15.98 15.98 0 0 0 82 172c0-8.824-7.176-16-16-16z" fill="#dde6ed" data-original="#000000" class="" opacity="1"></path></g></svg>