<svg xmlns="http://www.w3.org/2000/svg" version="1.1" xmlns:xlink="http://www.w3.org/1999/xlink" xmlns:svgjs="http://svgjs.com/svgjs" width="512" height="512" x="0" y="0" viewBox="0 0 300 300" style="enable-background:new 0 0 512 512" xml:space="preserve" class=""><g><circle cx="52.251" cy="201.674" r="4" fill="#dde6ed" data-original="#000000" class="" opacity="1"></circle><path d="M55.829 177.482c3.154-.957 5.748-3.082 7.303-5.988s1.883-6.246.928-9.398a12.274 12.274 0 0 0-5.988-7.301 12.274 12.274 0 0 0-9.398-.93c-3.154.957-5.748 3.082-7.303 5.988s-1.883 6.246-.928 9.398a12.274 12.274 0 0 0 5.988 7.301 12.272 12.272 0 0 0 9.398.93zm-5.623-7.984c-1.023-.547-1.771-1.457-2.107-2.566s-.221-2.281.326-3.305a4.314 4.314 0 0 1 2.568-2.105 4.29 4.29 0 0 1 3.303.328c1.023.547 1.771 1.457 2.107 2.566s.221 2.281-.326 3.305a4.314 4.314 0 0 1-2.568 2.105 4.286 4.286 0 0 1-3.303-.328z" fill="#dde6ed" data-original="#000000" class="" opacity="1"></path><path d="m257.07 139.963-20.819-23.793v-.84l2.828-2.828c4.973-4.973 5.029-12.289 2.559-16.648-1.061-1.875-2.191-4.395-3.502-7.312-8.615-19.176-24.648-54.867-85.885-54.867-35.076 0-59.561 14.148-79.393 45.879-16.523 26.441 2.586 62.715 12.854 82.207 1.127 2.137 2.137 4.051 2.961 5.703 7.436 14.871 7.094 72.395-26.641 94.883a4 4 0 0 0-1.109 5.547 4.01 4.01 0 0 0 5.547 1.109c36.953-24.637 38.611-86.613 29.359-105.117-.848-1.695-1.883-3.66-3.039-5.855-9.518-18.066-27.234-51.695-13.146-74.234 18.451-29.523 40.166-42.121 72.607-42.121 56.059 0 70.162 31.391 78.588 50.148 1.391 3.098 2.594 5.773 3.838 7.973.416.734 1.5 4.297-1.254 7.051l-.889.889a31.18 31.18 0 0 1-5.127 4.142l-15.156 9.797c-1.645 1.234 5.943 4 8 4h3.451c3.006 0 5.986-.562 8.786-1.657l18.888 21.587c.592.676.832 1.57.658 2.457a2.83 2.83 0 0 1-1.338 1.91l-11.711 3.91a4.022 4.022 0 0 0-2.734 3.818c.007 4.666 2.028 8.958 5.857 12.459l-3.514 3.516h-6.343c-2.209 0-4 1.789-4 4s1.791 4 4 4h5.527l1.605 3.211-3.404 3.402a7.567 7.567 0 0 0-2.232 5.387c0 1.867.667 3.629 1.887 5.019l.12.473-2.056 8.227a5.979 5.979 0 0 1-3.911 4.223l-5.268 1.754a5.946 5.946 0 0 1-1.88.305h-43.917l-4.895-9.789a3.998 3.998 0 0 0-5.367-1.789 4 4 0 0 0-1.789 5.367l6 12a4 4 0 0 0 3.577 2.211h12.162c-.088.52-.161 1.045-.161 1.59v13.6a7.62 7.62 0 0 1-2.232 5.388l-4.596 4.594a3.999 3.999 0 0 0-.75 4.617l8 16a3.998 3.998 0 0 0 5.367 1.789 4 4 0 0 0 1.789-5.367l-6.711-13.422 2.559-2.559a15.616 15.616 0 0 0 4.574-11.043v-13.597c0-.875.715-1.59 1.592-1.59H222.616c1.507 0 3.004-.243 4.434-.719l5.263-1.752a13.98 13.98 0 0 0 9.147-9.876l2.172-8.695c.609-2.43-.588-5.047-1.355-6.387-.178-.309-.393-.047-.645-.297l3.606-3.606a7.611 7.611 0 0 0 1.426-8.785l-1.547-3.094 3.154-3.152a7.319 7.319 0 0 0 2.135-5.434 7.428 7.428 0 0 0-2.582-5.34c-1.488-1.281-2.518-2.672-3.076-4.148l8.803-2.938a4.13 4.13 0 0 0 .523-.215c3.482-1.742 5.754-5.142 6-9.129.185-2.988-1.035-5.896-3.004-8.147z" fill="#dde6ed" data-original="#000000" class="" opacity="1"></path><path d="M163.257 163.404c-2.209 0-4 1.789-4 4 0 .832-.133 1.883-.764 2.145-.857.355-2.613-.043-3.754-1.188-2.131-2.133-4.828-3.25-7.684-4.43-3.453-1.43-7.367-3.051-11.234-6.918-5.736-5.738-2.461-22.145 0-24.609.906-.906 6.18-.641 11.045.969 2.094.68 4.357-.445 5.055-2.539a4 4 0 0 0-2.531-5.055c-3.209-1.066-14.094-4.164-19.227.969-5.027 5.035-9.414 26.504.002 35.922 4.994 4.992 10.102 7.105 13.83 8.652 2.189.906 4.08 1.688 5.086 2.695 2.357 2.359 5.578 3.652 8.662 3.652a9.99 9.99 0 0 0 3.812-.73c3.623-1.5 5.701-4.977 5.701-9.535.001-2.211-1.79-4-3.999-4zM65.605 48.947c.781.781 1.805 1.172 2.828 1.172s2.047-.391 2.828-1.172l3.067-3.068 3.067 3.068c.781.781 1.805 1.172 2.828 1.172s2.047-.391 2.828-1.172a4 4 0 0 0 0-5.656l-3.068-3.068 3.068-3.068a4 4 0 1 0-5.656-5.656l-3.067 3.068-3.067-3.068a4 4 0 1 0-5.656 5.656l3.068 3.068-3.068 3.068a3.997 3.997 0 0 0 0 5.656z" fill="#dde6ed" data-original="#000000" class="" opacity="1"></path><path d="m149.423 156.502 4 4c.781.781 1.805 1.172 2.828 1.172s2.047-.391 2.828-1.172a4 4 0 0 0 0-5.656l-4-4a4 4 0 1 0-5.656 5.656z" fill="#dde6ed" data-original="#000000" class="" opacity="1"></path></g></svg>