<svg xmlns="http://www.w3.org/2000/svg" version="1.1" xmlns:xlink="http://www.w3.org/1999/xlink" xmlns:svgjs="http://svgjs.com/svgjs" width="512" height="512" x="0" y="0" viewBox="0 0 411.754 411" style="enable-background:new 0 0 512 512" xml:space="preserve"><g><path d="M390.195 7.957c-11.886 0-21.554 9.664-21.554 21.55 0 11.888 9.668 21.555 21.554 21.555 11.887 0 21.559-9.667 21.559-21.554 0-11.887-9.672-21.551-21.559-21.551zm0 29.453c-4.355 0-7.902-3.547-7.902-7.902 0-4.352 3.547-7.899 7.902-7.899 4.36 0 7.907 3.547 7.907 7.899 0 4.355-3.547 7.902-7.907 7.902zM43.113 193.348c0-11.887-9.668-21.551-21.554-21.551C9.672 171.797 0 181.46 0 193.347c0 11.887 9.672 21.555 21.559 21.555 11.886 0 21.554-9.668 21.554-21.554zM21.56 201.25c-4.36 0-7.907-3.547-7.907-7.902 0-4.352 3.547-7.899 7.907-7.899 4.355 0 7.902 3.547 7.902 7.899 0 4.355-3.547 7.902-7.902 7.902zM38.941 118.254c0 5.832-4.726 10.562-10.558 10.562s-10.559-4.73-10.559-10.562c0-5.828 4.727-10.559 10.559-10.559 5.832 0 10.558 4.73 10.558 10.559zM387.102 377.668c0 5.832-4.727 10.559-10.559 10.559s-10.559-4.727-10.559-10.559 4.727-10.559 10.559-10.559 10.559 4.727 10.559 10.559zM195.957 29.508c0 5.832-4.727 10.558-10.559 10.558-5.832 0-10.562-4.726-10.562-10.558s4.73-10.559 10.562-10.559c5.832 0 10.559 4.727 10.559 10.559zM4.664 36.164a6.812 6.812 0 0 0 4.828 2 6.803 6.803 0 0 0 4.824-2l7.243-7.242 7.238 7.238a6.793 6.793 0 0 0 4.824 2 6.796 6.796 0 0 0 4.828-2 6.82 6.82 0 0 0 0-9.652l-7.238-7.238 7.238-7.243a6.82 6.82 0 0 0 0-9.652 6.828 6.828 0 0 0-9.652 0l-7.238 7.242-7.243-7.242a6.828 6.828 0 0 0-9.652 0 6.828 6.828 0 0 0 0 9.652l7.238 7.243-7.238 7.238a6.825 6.825 0 0 0 0 9.656zm0 0" fill="#dde6ed" data-original="#000000" opacity="1"></path><path d="m353.773 204.29 31.188-17.056c5.695-3.105 9.809-8.257 11.582-14.5 1.777-6.238.984-12.785-2.223-18.433-3.175-5.586-8.336-9.594-14.527-11.285-6.203-1.715-12.688-.88-18.258 2.308l-25.5 14.57c-14.168 8.102-24.437 21.204-28.922 36.887l-10.207 35.723c-.07.25-.23.473-.43.625-.14.101-.57.426-1.214.094-.637-.32-.637-.86-.637-1.04v-14.94c0-13.173-10.723-23.895-23.895-23.895-13.175 0-23.894 10.722-23.894 23.894v22.367a37.657 37.657 0 0 1-16.024 30.805l-2.804 1.969c-10.133 7.105-17.363 17.883-20.149 29.91l-2.59-12.945c-4.363-21.801-.09-44.075 12.028-62.715a98.082 98.082 0 0 0 15.887-53.578v-4.942c0-3.93 1.52-7.629 4.289-10.422a14.739 14.739 0 0 1 16.015-3.324l18.567 7.426c9.36 3.723 20.175.367 25.757-8 3.731-5.594 4.622-12.445 2.442-18.813-2.184-6.367-7.094-11.234-13.477-13.359l-.148-.055 3.273-6.546c5.223-10.438 15.72-16.926 27.395-16.926h21.621c13.219 0 23.973-10.754 23.973-23.973s-10.754-23.973-23.973-23.973h-10.16V39.746c0-13.172-10.719-23.89-23.895-23.89-13.172 0-23.894 10.718-23.894 23.89v9.637c0 2.87-1.23 5.605-3.383 7.504-2.117 1.883-4.828 2.738-7.656 2.472a9.91 9.91 0 0 1-7.008-3.964l-2.293-3.055a24.804 24.804 0 0 0-18.102-9.871c-7.148-.461-14.226 2.117-19.32 7.215-8.68 8.68-9.672 22.632-2.309 32.445l5.133 6.855c4.371 5.817 3.781 14.098-1.367 19.25-4.953 4.946-12.77 5.723-18.594 1.84L183.898 95.29a59.209 59.209 0 0 1-20.062-22.726l-9.32-18.641c-6.414-12.82-22.059-18.031-34.883-11.625-12.817 6.406-18.031 22.055-11.625 34.883l13.515 27.023-27.734 8.3c-12.394 3.716-19.754 16.481-16.762 29.06a24.395 24.395 0 0 0 12.535 16.039 24.27 24.27 0 0 0 20.329.98l28.8-11.539c11.246-4.527 24.121-2.621 33.594 4.965 8.336 6.668 13.113 16.605 13.113 27.281 0 7.82-2.328 15.367-6.734 21.824l-3.625 5.309-3.613-7.234c-6.285-12.56-21.61-17.672-34.164-11.395-6.325 3.168-10.934 8.633-12.985 15.398-2.05 6.766-1.246 13.875 2.262 20.016l15.14 26.492a91.869 91.869 0 0 1 11.22 32.7l4.23 29.613-11.633-4.653a50.557 50.557 0 0 1-26.46-24.34l-2.599-5.206c-2.269-4.54-2.64-9.696-1.03-14.508l1.323-3.965c3.207-9.621.743-20.063-6.433-27.242l-5.004-5c-4.43-4.426-10.55-6.649-16.773-5.993a20.746 20.746 0 0 0-15.27 9.165c-2.145 3.222-6.52 4.093-9.7 1.968-.01-.008-.581-.394-.593-.402-10.652-7.106-25.09-4.207-32.191 6.441-6.508 9.762-4.7 22.871 4.207 30.5l39.218 33.625c.575.493.637 1.09.586 1.508-.05.414-.254.98-.933 1.32l-18.512 9.254a26.742 26.742 0 0 0-14.105 17.825 26.748 26.748 0 0 0 4.644 22.253c8.527 11.38 24.484 14.114 36.328 6.227l15.168-10.113c10.625-7.082 24.301-7.91 35.688-2.13l10.445 5.29c9 4.55 14.594 13.652 14.594 23.738v13.742a6.822 6.822 0 0 0 6.828 6.825h68.265a6.82 6.82 0 0 0 6.825-6.825v-15.253c0-2.95 1.21-5.66 3.41-7.63 2.191-1.964 5.031-2.898 7.941-2.546l33.098 3.633c18.492 2.015 37.027-2.813 52.16-13.633l21.566-15.399a24.559 24.559 0 0 0 10.227-17.992 24.58 24.58 0 0 0-7.129-19.441c-8.582-8.578-22.39-9.578-32.105-2.332l-20.758 15.453c-5.953 4.433-13.32 6.87-20.735 6.87h-17.164c-5.53 0-10.03-4.5-10.03-10.023a19.441 19.441 0 0 1 10.527-17.32l31.683-16.433c13.672-7.086 29.035-10.836 44.434-10.836h25.992c13.176 0 23.894-10.72 23.894-23.891 0-13.176-10.718-23.895-23.894-23.895h-15.172c-4.809 0-8.719-3.914-8.719-8.718a8.71 8.71 0 0 1 4.535-7.64zm4.184 30.019h15.172c5.648 0 10.242 4.593 10.242 10.242 0 5.644-4.594 10.238-10.242 10.238h-25.996c-17.57 0-35.113 4.274-50.719 12.367L264.73 283.59c-11.035 5.719-17.89 17.008-17.89 29.437 0 13.063 10.62 23.68 23.683 23.68h17.164c10.329 0 20.586-3.398 28.887-9.57l20.758-15.461c4.344-3.215 10.488-2.774 14.3 1.039a10.934 10.934 0 0 1 3.173 8.66 10.946 10.946 0 0 1-4.551 8.012l-21.567 15.398a61.848 61.848 0 0 1-42.738 11.168l-33.094-3.633c-6.722-.722-13.496 1.426-18.546 5.953a23.886 23.886 0 0 0-7.95 17.793v8.426h-54.613v-6.91c0-15.27-8.46-29.027-22.082-35.93l-10.441-5.28c-15.782-7.993-34.72-6.86-49.43 2.948l-15.164 10.114c-5.817 3.875-13.652 2.53-17.836-3.055a13.146 13.146 0 0 1-2.281-10.926c.898-3.812 3.422-7 6.922-8.754l18.52-9.25a15.342 15.342 0 0 0 8.37-11.875 15.318 15.318 0 0 0-5.25-13.535l-39.219-33.625a9.566 9.566 0 0 1-1.734-12.559c2.926-4.386 8.883-5.566 13.23-2.671.012.003.586.39.594.398 9.492 6.324 22.344 3.746 28.664-5.734a7.122 7.122 0 0 1 5.254-3.153c2.172-.242 4.254.532 5.778 2.059l4.996 5c3.496 3.5 4.699 8.582 3.136 13.266l-1.32 3.968c-2.758 8.274-2.129 17.125 1.77 24.926l2.597 5.207a64.234 64.234 0 0 0 33.602 30.918l22.601 9.035a6.833 6.833 0 0 0 6.754-.972 6.828 6.828 0 0 0 2.535-6.336l-5.902-41.297a105.366 105.366 0 0 0-12.879-37.543l-15.144-26.492a11.7 11.7 0 0 1-1.043-9.286 11.714 11.714 0 0 1 6.02-7.14c5.84-2.914 12.937-.531 15.843 5.289l8.813 17.617a6.832 6.832 0 0 0 5.64 3.762c2.504.113 4.738-.969 6.102-2.969l10.175-14.898a52.178 52.178 0 0 0 9.114-29.52c0-14.84-6.645-28.672-18.235-37.945-13.296-10.64-31.382-13.328-47.203-6.973l-28.808 11.547a10.8 10.8 0 0 1-8.965-.434 10.778 10.778 0 0 1-5.528-7.078c-1.32-5.554 1.93-11.183 7.391-12.824l35.516-10.625a6.823 6.823 0 0 0 4.308-3.832 6.82 6.82 0 0 0-.16-5.762L120.223 71.07c-3.043-6.086-.567-13.52 5.52-16.558 6.07-3.055 13.515-.57 16.558 5.515l9.32 18.641a72.8 72.8 0 0 0 24.703 27.98l22.172 14.79c11.223 7.472 26.29 5.992 35.816-3.547 9.926-9.926 11.06-25.875 2.641-37.102l-5.133-6.852c-3.312-4.414-2.87-10.695 1.035-14.601a11.217 11.217 0 0 1 8.7-3.246c3.28.234 6.175 1.812 8.148 4.445L252 63.59a23.716 23.716 0 0 0 16.55 9.351 23.753 23.753 0 0 0 18.083-5.824 23.675 23.675 0 0 0 7.992-17.734V39.75c0-5.648 4.59-10.242 10.238-10.242 5.649 0 10.242 4.594 10.242 10.242v17.227a6.82 6.82 0 0 0 6.825 6.824h16.988c5.687 0 10.32 4.629 10.32 10.32 0 5.695-4.633 10.32-10.32 10.32h-21.621c-16.883 0-32.055 9.383-39.61 24.477l-6.792 13.586a6.83 6.83 0 0 0 3.945 9.527l7.617 2.54a7.702 7.702 0 0 1 4.879 4.84 7.666 7.666 0 0 1-.883 6.812c-2.016 3.03-5.933 4.261-9.328 2.894l-18.57-7.43c-10.645-4.246-22.723-1.746-30.782 6.403-5.316 5.36-8.242 12.472-8.242 20.023v4.942a84.452 84.452 0 0 1-13.68 46.14c-14.07 21.649-19.03 47.512-13.968 72.832l9.84 49.196c.652 3.226 3.547 5.632 6.804 5.484a6.818 6.818 0 0 0 6.621-5.707l5.575-33.434c1.609-9.644 7.12-18.398 15.125-24.011l2.804-1.965a51.313 51.313 0 0 0 21.84-41.98v-22.368c0-5.648 4.59-10.238 10.238-10.238 5.649 0 10.239 4.59 10.239 10.238v14.942a14.735 14.735 0 0 0 8.129 13.218c5.004 2.54 10.933 2.055 15.472-1.28a14.92 14.92 0 0 0 5.461-7.864l10.207-35.73c3.5-12.239 11.516-22.458 22.57-28.778l25.5-14.574c2.407-1.38 5.212-1.742 7.876-.992a10.275 10.275 0 0 1 6.27 4.867 10.289 10.289 0 0 1 .956 7.953 10.27 10.27 0 0 1-4.996 6.254l-31.191 17.05a22.362 22.362 0 0 0-11.641 19.63c0 12.335 10.04 22.37 22.375 22.37zm0 0" fill="#dde6ed" data-original="#000000" opacity="1"></path></g></svg>