<svg xmlns="http://www.w3.org/2000/svg" version="1.1" xmlns:xlink="http://www.w3.org/1999/xlink" xmlns:svgjs="http://svgjs.com/svgjs" width="512" height="512" x="0" y="0" viewBox="0 0 300 300" style="enable-background:new 0 0 512 512" xml:space="preserve" class=""><g><circle cx="143.278" cy="258" r="4" fill="#dde6ed" data-original="#000000" opacity="1"></circle><circle cx="103.278" cy="42" r="4" fill="#dde6ed" data-original="#000000" opacity="1"></circle><path d="M217.343 105.953c.781.781 1.805 1.172 2.828 1.172s2.047-.391 2.828-1.172l4.562-4.563 4.562 4.563c.781.781 1.805 1.172 2.828 1.172s2.047-.391 2.828-1.172a4 4 0 0 0 0-5.656l-4.563-4.563 4.563-4.563a4 4 0 1 0-5.656-5.656l-4.562 4.563-4.562-4.563a4 4 0 1 0-5.656 5.656l4.563 4.563-4.563 4.563a3.997 3.997 0 0 0 0 5.656z" fill="#dde6ed" data-original="#000000" opacity="1"></path><path d="M263.956 128.893c-1.932-5.945-7.707-11.387-16.322-10.186l-60.801 8.621c-3.734.561-7.17-1.967-7.824-5.684l-10.59-60.49c-1.496-8.549-8.475-12.375-14.729-12.375s-13.232 3.826-14.729 12.375l-10.59 60.49a6.93 6.93 0 0 1-7.824 5.684l-60.801-8.621c-8.627-1.203-14.389 4.24-16.32 10.186-1.934 5.947-.451 13.768 7.217 17.83l54.256 28.764a6.928 6.928 0 0 1 2.988 9.201l-26.988 55.16c-3.812 7.795-.416 14.992 4.643 18.668 2.484 1.805 5.652 2.967 8.973 2.967 3.441 0 7.045-1.248 10.217-4.32l44.125-42.713a6.924 6.924 0 0 1 9.672 0l44.121 42.715c6.236 6.033 14.129 5.027 19.189 1.352 5.059-3.676 8.455-10.873 4.643-18.668l-26.988-55.16a6.927 6.927 0 0 1 2.988-9.201l54.256-28.762c7.667-4.066 9.15-11.886 7.218-17.833zm-10.965 10.763-54.256 28.764a14.892 14.892 0 0 0-6.43 19.783l26.988 55.16c1.896 3.873.023 7.098-2.156 8.68-2.182 1.586-5.824 2.371-8.926-.627l-44.121-42.715c-2.916-2.822-6.658-4.232-10.4-4.232s-7.484 1.41-10.398 4.234l-44.123 42.713c-3.1 2.994-6.742 2.213-8.924.629-2.18-1.584-4.055-4.809-2.158-8.682l26.988-55.16a14.892 14.892 0 0 0-6.43-19.783L54.39 139.656c-3.809-2.02-4.188-5.73-3.355-8.293.834-2.562 3.352-5.334 7.588-4.734l60.801 8.621c8.064 1.135 15.432-4.23 16.828-12.227l10.59-60.49c.744-4.246 4.154-5.754 6.85-5.754s6.105 1.508 6.85 5.754l10.59 60.49c1.398 7.998 8.764 13.359 16.828 12.227l60.801-8.621c4.248-.6 6.756 2.172 7.588 4.736.832 2.563.451 6.272-3.358 8.291z" fill="#dde6ed" data-original="#000000" opacity="1"></path><path d="m51.272 90.736 7.557-.643a2.014 2.014 0 0 1 2.164 1.766l.889 7.533c.58 4.918 4.437 8.545 9.381 8.82.201.012.398.018.598.018 4.684 0 8.629-3.109 9.707-7.734l1.727-7.389a1.997 1.997 0 0 1 2.348-1.512l7.438 1.48c4.844.973 9.496-1.578 11.289-6.193 1.791-4.615.082-9.627-4.156-12.188l-6.492-3.922a2 2 0 0 1-.715-2.701l3.709-6.615c2.422-4.318 1.436-9.521-2.402-12.65-3.838-3.131-9.131-3.051-12.875.186L75.7 53.955a1.997 1.997 0 0 1-2.791-.158l-5.146-5.572c-3.361-3.637-8.613-4.307-12.773-1.621-4.162 2.682-5.725 7.74-3.801 12.303l2.947 6.99a1.998 1.998 0 0 1-1.01 2.604l-6.889 3.174c-4.498 2.07-6.756 6.859-5.492 11.646 1.266 4.786 5.566 7.814 10.527 7.415zm-1.689-11.797 6.889-3.174a9.962 9.962 0 0 0 5.035-12.98l-2.947-6.988c-.57-1.352.234-2.127.764-2.469.531-.34 1.564-.754 2.564.326l5.146 5.572a9.973 9.973 0 0 0 13.9.779l5.736-4.963c1.111-.957 2.098-.438 2.584-.037.488.398 1.199 1.258.482 2.537l-3.709 6.615a9.965 9.965 0 0 0 3.555 13.463l6.492 3.922c1.258.76 1.062 1.859.834 2.445-.227.588-.816 1.529-2.266 1.242l-7.438-1.48a9.953 9.953 0 0 0-11.703 7.539l-1.725 7.389c-.336 1.428-1.459 1.57-2.068 1.549-.629-.035-1.711-.312-1.883-1.771l-.889-7.531a9.96 9.96 0 0 0-9.914-8.84c-.289 0-.58.014-.875.037l-7.557.643c-1.451.121-1.953-.877-2.111-1.486-.16-.61-.23-1.723 1.104-2.339zM49.278 182c-7.719 0-14 6.281-14 14s6.281 14 14 14 14-6.281 14-14-6.281-14-14-14zm0 20c-3.309 0-6-2.691-6-6s2.691-6 6-6 6 2.691 6 6-2.691 6-6 6z" fill="#dde6ed" data-original="#000000" opacity="1"></path><circle cx="211.278" cy="142" r="4" fill="#dde6ed" data-original="#000000" opacity="1"></circle><circle cx="105.278" cy="148" r="6" fill="#dde6ed" data-original="#000000" opacity="1"></circle><circle cx="133.278" cy="180" r="6" fill="#dde6ed" data-original="#000000" opacity="1"></circle><circle cx="199.278" cy="230" r="4" fill="#dde6ed" data-original="#000000" opacity="1"></circle><circle cx="159.278" cy="190" r="4" fill="#dde6ed" data-original="#000000" opacity="1"></circle><circle cx="111.278" cy="222" r="4" fill="#dde6ed" data-original="#000000" opacity="1"></circle><circle cx="179.278" cy="198" r="4" fill="#dde6ed" data-original="#000000" opacity="1"></circle><circle cx="143.278" cy="158" r="8" fill="#dde6ed" data-original="#000000" opacity="1"></circle><circle cx="171.278" cy="174" r="4" fill="#dde6ed" data-original="#000000" opacity="1"></circle><circle cx="155.278" cy="134" r="4" fill="#dde6ed" data-original="#000000" opacity="1"></circle><circle cx="155.278" cy="90" r="4" fill="#dde6ed" data-original="#000000" opacity="1"></circle><circle cx="83.278" cy="142" r="4" fill="#dde6ed" data-original="#000000" opacity="1"></circle><circle cx="173.278" cy="152" r="6" fill="#dde6ed" data-original="#000000" opacity="1"></circle><circle cx="153.278" cy="108" r="6" fill="#dde6ed" data-original="#000000" opacity="1"></circle><circle cx="133.278" cy="200" r="6" fill="#dde6ed" data-original="#000000" opacity="1"></circle></g></svg>