<svg xmlns="http://www.w3.org/2000/svg" version="1.1" xmlns:xlink="http://www.w3.org/1999/xlink" xmlns:svgjs="http://svgjs.com/svgjs" width="512" height="512" x="0" y="0" viewBox="0 0 390 390.197" style="enable-background:new 0 0 512 512" xml:space="preserve" class=""><g><path d="M298.883 43.105c11.887 0 21.555-9.664 21.555-21.55C320.438 9.668 310.77 0 298.882 0s-21.551 9.668-21.551 21.555c0 11.886 9.664 21.55 21.55 21.55zm0-29.449c4.355 0 7.902 3.547 7.902 7.899 0 4.355-3.547 7.902-7.902 7.902-4.352 0-7.899-3.547-7.899-7.902 0-4.352 3.547-7.899 7.899-7.899zM32.645 334.508c-11.887 0-21.555 9.668-21.555 21.555s9.668 21.554 21.555 21.554 21.55-9.668 21.55-21.555-9.664-21.554-21.55-21.554zm0 29.453c-4.356 0-7.903-3.547-7.903-7.902 0-4.352 3.547-7.899 7.903-7.899 4.351 0 7.898 3.547 7.898 7.899 0 4.355-3.547 7.902-7.898 7.902zM364.055 117.125c0 5.832-4.727 10.563-10.559 10.563-5.832 0-10.559-4.731-10.559-10.563 0-5.828 4.727-10.559 10.56-10.559 5.831 0 10.558 4.73 10.558 10.559zM36.375 164.914c0 5.832-4.727 10.559-10.559 10.559-5.832 0-10.558-4.727-10.558-10.559 0-5.832 4.726-10.559 10.558-10.559s10.559 4.727 10.559 10.56zM104.645 14.727c0 5.832-4.73 10.558-10.563 10.558-5.828 0-10.559-4.726-10.559-10.558s4.73-10.559 10.559-10.559c5.832 0 10.563 4.727 10.563 10.559zM18.992 68.754l7.238 7.242a6.81 6.81 0 0 0 4.825 2 6.812 6.812 0 0 0 4.828-2 6.832 6.832 0 0 0 0-9.656l-7.238-7.238 7.238-7.239a6.828 6.828 0 0 0 0-9.652 6.82 6.82 0 0 0-9.653 0l-7.238 7.238-7.242-7.242a6.828 6.828 0 0 0-9.652 0 6.828 6.828 0 0 0 0 9.652l7.238 7.243-7.238 7.238a6.828 6.828 0 0 0 4.828 11.652 6.803 6.803 0 0 0 4.824-2zM343.082 322.102a6.82 6.82 0 0 0-9.652 0l-7.239 7.238-7.242-7.238a6.82 6.82 0 0 0-9.652 0 6.828 6.828 0 0 0 0 9.652l7.242 7.238-7.242 7.242a6.828 6.828 0 0 0 4.828 11.653 6.803 6.803 0 0 0 4.824-2l7.242-7.242 7.239 7.242a6.812 6.812 0 0 0 4.828 2 6.803 6.803 0 0 0 4.824-2 6.82 6.82 0 0 0 0-9.653l-7.238-7.242 7.238-7.238a6.82 6.82 0 0 0 0-9.652zM280.5 173.871l1.23-13.535c1.532-16.867-4.933-32.902-17.734-43.996-2.312-1.996-4.785-3.684-7.328-5.223-3.125-15.722-12.23-29.332-25.664-38.316-3.996-2.672-8.25-4.77-12.649-6.403v-2.191c0-12.5-5.593-24.144-15.351-31.96l-17.992-14.395c-6.387-5.106-14.395-7.41-22.489-6.512-8.12.906-15.406 4.914-20.507 11.293L128.73 39.234a40.882 40.882 0 0 0-7.082 37.84l1.086 3.45c-17.418 10.46-29.816 28.316-32.863 49.152l-3.469 23.695c-.039.281.051.54.047.816-12.011 14.844-18.988 33.731-18.539 53.754l.242 10.746c.008.395.172.735.246 1.106-4.933 7.352-8.578 15.648-10.539 24.695-4.734 21.832.899 43.82 15.465 60.336 19.52 22.145 43.778 37.078 72.168 44.446v.792c0 22.13 18.004 40.133 40.625 40.133 12.219 0 24.094-4.191 33.426-11.797a299.638 299.638 0 0 0 16.414-14.421c14.648-13.825 35.328-36.254 50.652-64.645.004-.004.012-.008.012-.016 11.274-20.87 18.176-42.144 20.516-63.226.027-.254.039-.5.039-.754v-8.707c0-18.367-7.774-36-21.332-48.371a64.613 64.613 0 0 0-5.344-4.387zm-12.371-14.777-.672 7.37c-10.055-4.327-21.137-6.206-32.262-5.206-35.566 3.242-88.246 11.699-137.226 33.61-6.02 2.69-11.45 6.214-16.352 10.292.434-31.297 22.324-58.914 52.957-66.207l86.52-20.601c12.176-2.899 24.527.14 33.96 8.308 9.442 8.18 14.208 20 13.075 32.434zM134.676 72.98a27.254 27.254 0 0 1 4.715-25.218l13.285-16.594a16.833 16.833 0 0 1 11.355-6.254c4.52-.527 8.918.781 12.446 3.606l17.992 14.386c6.199 4.961 9.773 12.27 10.105 20.149-6.234-.73-12.61-.528-18.953.746l-41.012 8.207c-3.23.648-6.367 1.547-9.414 2.62zm12.613 12.415 41.016-8.207c12.246-2.465 24.726.011 35.105 6.96 7.719 5.165 13.582 12.301 17.086 20.598a51.845 51.845 0 0 0-22.558.328l-86.52 20.598c-10.75 2.558-20.563 7.262-29.14 13.496l1.1-7.523c3.38-23.083 21.028-41.676 43.911-46.25zm126.5 208.933c-10.664 19.356-23.957 35.754-35.691 48.2v-.794c0-13.16-5.13-25.535-14.434-34.84l-21.7-21.699a35.014 35.014 0 0 1-10.148-27.675 34.993 34.993 0 0 1 14.563-25.625c6.156-4.403 13.293-6.563 20.379-6.563 9.012 0 17.957 3.496 24.765 10.3l2.586 2.587c12.696 12.695 19.68 29.562 19.68 47.508zm19.734-59.371c-1.261 11.102-3.964 22.29-7.988 33.457-3.254-14.976-10.672-28.75-21.773-39.848l-2.586-2.586c-16.906-16.898-43.301-19.082-62.735-5.195a48.623 48.623 0 0 0-20.234 35.606 48.638 48.638 0 0 0 14.102 38.453l21.699 21.703c6.726 6.726 10.433 15.672 10.433 25.187v14.254c-4.503 4.176-9.035 8.172-13.52 11.817-6.905 5.633-15.718 8.734-25.3 8.734-13.695 0-24.863-10.492-26.21-23.84l30.734 7.68c.55.14 1.113.207 1.66.207a6.818 6.818 0 0 0 6.613-5.176c.918-3.652-1.309-7.36-4.969-8.273l-39.48-9.867c-.016 0-.031.003-.047 0-.047-.012-.078-.04-.125-.051-27.82-6.18-51.445-20.121-70.23-41.426-11.66-13.227-16.169-30.867-12.368-48.414 3.906-18 15.7-32.594 32.348-40.047 47.266-21.14 98.36-29.328 132.89-32.473 14.688-1.375 29.36 3.575 40.208 13.477 10.886 9.937 16.882 23.539 16.882 38.293v8.328zm0 0" fill="#dde6ed" data-original="#000000" class="" opacity="1"></path><path d="M162.352 301.445c-15.2 0-29.657-4.656-42.961-13.843-13.754-9.516-18.868-27.727-12.16-43.309 1.492-3.457-.102-7.48-3.567-8.965a6.814 6.814 0 0 0-8.969 3.567c-9.28 21.527-2.16 46.734 16.934 59.937 15.629 10.793 32.695 16.27 50.723 16.27a6.822 6.822 0 0 0 6.824-6.829 6.822 6.822 0 0 0-6.824-6.828zm0 0" fill="#dde6ed" data-original="#000000" class="" opacity="1"></path></g></svg>