<svg xmlns="http://www.w3.org/2000/svg" version="1.1" xmlns:xlink="http://www.w3.org/1999/xlink" xmlns:svgjs="http://svgjs.com/svgjs" width="512" height="512" x="0" y="0" viewBox="0 0 204.803 204.803" style="enable-background:new 0 0 512 512" xml:space="preserve" class=""><g><path d="M142.996 108.175c-3.796-6.219-7.074-11.593-7.803-17.062-1.495-11.216-2.108-22.362-2.647-32.198-1.388-25.288-2.483-45.259-18.196-45.259-17.333 0-60.298 21.941-64.835 64.492-1.514 14.205 1.08 24.805 3.591 35.057 2.514 10.271 4.89 19.971 3.243 33.149-1.225 9.805 1.782 19.13 8.701 26.967 9.709 10.998 25.982 17.83 42.472 17.83 26.351 0 47.787-21.437 47.787-47.787-.001-15.011-6.543-25.731-12.313-35.189zm-35.473 76.148c-14.368 0-29.032-6.094-37.356-15.522-5.584-6.327-8.021-13.797-7.045-21.601 1.804-14.425-.835-25.201-3.386-35.62-2.48-10.126-4.821-19.69-3.434-32.708 4.043-37.929 43.006-58.388 58.045-58.388 8.805 0 10.061 14.744 11.38 38.804.548 9.96 1.167 21.248 2.698 32.729.92 6.893 4.721 13.123 8.743 19.715 5.562 9.115 11.313 18.54 11.313 31.631.002 22.584-18.372 40.96-40.958 40.96z" fill="#dde6ed" data-original="#000000" opacity="1"></path><path d="M95.575 51.203c-6.588 0-11.947 5.361-11.947 11.947 0 6.586 5.359 11.947 11.947 11.947s11.947-5.361 11.947-11.947c-.001-6.586-5.359-11.947-11.947-11.947zm0 17.067a5.126 5.126 0 0 1-5.12-5.12 5.126 5.126 0 0 1 5.12-5.12 5.123 5.123 0 0 1 5.12 5.12 5.126 5.126 0 0 1-5.12 5.12zM104.108 116.057c-11.293 0-20.48 9.187-20.48 20.48s9.187 20.48 20.48 20.48 20.48-9.187 20.48-20.48-9.187-20.48-20.48-20.48zm0 34.133c-7.528 0-13.653-6.125-13.653-13.653 0-7.528 6.125-13.653 13.653-13.653 7.528 0 13.653 6.125 13.653 13.653 0 7.528-6.125 13.653-13.653 13.653zM118.589.104a3.412 3.412 0 0 0-4.139 2.483l-3.413 13.653a3.414 3.414 0 0 0 6.623 1.656l3.413-13.653a3.413 3.413 0 0 0-2.484-4.139zM141.554 19.654a3.411 3.411 0 0 0-4.139-2.483l-13.653 3.413a3.414 3.414 0 0 0 1.653 6.624l13.653-3.413a3.415 3.415 0 0 0 2.486-4.141zM144.967 40.134a3.414 3.414 0 0 0-4.139-2.483l-13.653 3.413a3.414 3.414 0 0 0 1.653 6.624l13.653-3.413a3.415 3.415 0 0 0 2.486-4.141zM141.655 54.617h-10.24a3.414 3.414 0 0 0 0 6.826h10.24a3.413 3.413 0 1 0 0-6.826zM141.655 75.097h-10.24a3.414 3.414 0 0 0 0 6.826h10.24a3.413 3.413 0 1 0 0-6.826zM151.794 94.747a3.41 3.41 0 0 0-4.139-2.483l-13.653 3.413a3.414 3.414 0 0 0 1.653 6.624l13.653-3.413a3.414 3.414 0 0 0 2.486-4.141zM165.306 107.96a3.422 3.422 0 0 0-4.437-1.901l-17.067 6.827a3.416 3.416 0 0 0 1.268 6.586c.422 0 .85-.08 1.268-.246l17.067-6.827a3.416 3.416 0 0 0 1.901-4.439zM165.548 126.297h-13.653a3.414 3.414 0 0 0 0 6.826h13.653a3.413 3.413 0 1 0 0-6.826zM164.028 150.763l-10.24-6.827a3.414 3.414 0 0 0-4.733.947 3.415 3.415 0 0 0 .947 4.733l10.24 6.827a3.407 3.407 0 0 0 4.732-.948 3.413 3.413 0 0 0-.946-4.732zM157.721 168.257l-6.827-6.827a3.412 3.412 0 1 0-4.826 4.826l6.827 6.827c.666.667 1.539 1 2.413 1s1.748-.335 2.413-1a3.412 3.412 0 0 0 0-4.826zM148.381 186.907l-3.413-13.653a3.414 3.414 0 0 0-6.624 1.657l3.413 13.653a3.416 3.416 0 0 0 4.138 2.484 3.416 3.416 0 0 0 2.486-4.141zM137.883 196.451l-6.827-13.653a3.412 3.412 0 0 0-4.581-1.528 3.416 3.416 0 0 0-1.528 4.581l6.827 13.653a3.416 3.416 0 0 0 4.581 1.528 3.416 3.416 0 0 0 1.528-4.581zM114.348 184.323a3.414 3.414 0 0 0-3.413 3.413v13.653a3.414 3.414 0 0 0 6.826 0v-13.653a3.414 3.414 0 0 0-3.413-3.413zM98.809 184.682a3.416 3.416 0 0 0-4.581 1.527l-6.827 13.653a3.416 3.416 0 0 0 3.052 4.941 3.416 3.416 0 0 0 3.057-1.888l6.827-13.653a3.416 3.416 0 0 0-1.528-4.58zM86.683 182.797a3.413 3.413 0 0 0-4.581-1.528l-13.653 6.827a3.416 3.416 0 0 0-1.528 4.581 3.416 3.416 0 0 0 4.581 1.528l13.653-6.827a3.415 3.415 0 0 0 1.528-4.581zM73.287 173.254a3.412 3.412 0 0 0-4.139-2.483l-13.653 3.413a3.414 3.414 0 0 0 1.653 6.624l13.653-3.413a3.415 3.415 0 0 0 2.486-4.141zM62.974 159.351a3.413 3.413 0 0 0-4.318-2.159l-10.24 3.413a3.413 3.413 0 1 0 2.159 6.477l10.24-3.413a3.413 3.413 0 0 0 2.159-4.318zM57.849 140.308l-6.827-3.413a3.416 3.416 0 0 0-4.581 1.527 3.417 3.417 0 0 0 1.527 4.581l6.827 3.413a3.416 3.416 0 0 0 4.581-1.528 3.415 3.415 0 0 0-1.527-4.58zM59.561 118.391a3.414 3.414 0 0 0-4.318-2.159l-10.24 3.413a3.413 3.413 0 1 0 2.159 6.477l10.24-3.413a3.414 3.414 0 0 0 2.159-4.318zM53.736 102.504l-13.653-3.413a3.414 3.414 0 0 0-1.654 6.623l13.653 3.413a3.417 3.417 0 0 0 4.138-2.484 3.414 3.414 0 0 0-2.484-4.139zM54.801 92.737l-10.24-6.827a3.414 3.414 0 0 0-4.733.947 3.415 3.415 0 0 0 .947 4.733l10.24 6.827a3.407 3.407 0 0 0 4.732-.948 3.411 3.411 0 0 0-.946-4.732zM54.436 68.628l-6.827-3.413a3.418 3.418 0 0 0-4.581 1.528 3.417 3.417 0 0 0 1.527 4.581l6.827 3.413a3.416 3.416 0 0 0 3.054-6.109zM59.376 56.504l-3.413-6.827a3.415 3.415 0 0 0-6.108 3.054l3.413 6.827a3.416 3.416 0 0 0 4.581 1.528 3.417 3.417 0 0 0 1.527-4.582zM69.616 42.851l-3.413-6.827a3.415 3.415 0 0 0-6.108 3.054l3.413 6.827a3.416 3.416 0 0 0 4.581 1.528 3.417 3.417 0 0 0 1.527-4.582zM79.856 29.197l-3.413-6.827a3.415 3.415 0 0 0-6.108 3.054l3.413 6.827a3.416 3.416 0 0 0 4.581 1.528 3.416 3.416 0 0 0 1.527-4.582zM92.868 21.483l-6.827-6.827a3.412 3.412 0 1 0-4.826 4.826l6.827 6.827c.666.667 1.539 1 2.413 1s1.748-.335 2.413-1a3.412 3.412 0 0 0 0-4.826zM103.934 15.991l-3.413-10.24a3.413 3.413 0 1 0-6.477 2.159l3.413 10.24a3.415 3.415 0 0 0 4.318 2.159 3.413 3.413 0 0 0 2.159-4.318z" fill="#dde6ed" data-original="#000000" opacity="1"></path></g></svg>