<svg xmlns="http://www.w3.org/2000/svg" version="1.1" xmlns:xlink="http://www.w3.org/1999/xlink" xmlns:svgjs="http://svgjs.com/svgjs" width="512" height="512" x="0" y="0" viewBox="0 0 512 512" style="enable-background:new 0 0 512 512" xml:space="preserve" class=""><g><path d="M343.726 227.375h-.034a7.5 7.5 0 0 0-7.499 7.466l-.021 4.787a7.5 7.5 0 0 0 7.467 7.534h.034a7.5 7.5 0 0 0 7.499-7.466l.021-4.787a7.5 7.5 0 0 0-7.467-7.534zM220.555 226.826a7.5 7.5 0 0 0-7.499 7.466l-.021 4.787a7.5 7.5 0 0 0 7.467 7.534h.034a7.5 7.5 0 0 0 7.499-7.466l.021-4.787a7.5 7.5 0 0 0-7.467-7.534h-.034zM282.703 277.963c15.185 0 23.997-17.38 14.869-29.619 9.112-12.218.336-29.62-14.869-29.62-4.143 0-7.5 3.358-7.5 7.5s3.357 7.5 7.5 7.5c4.703 0 4.705 7.12 0 7.12-4.143 0-7.5 3.358-7.5 7.5s3.357 7.5 7.5 7.5c4.703 0 4.706 7.119 0 7.119a7.5 7.5 0 0 0 0 15z" fill="#dde6ed" data-original="#000000" class="" opacity="1"></path><path d="M350.765 471.879A106.836 106.836 0 0 1 282 497c-50.369 0-93.179-34.31-104.105-83.434-4.776-21.474-9.371-43.958-13.654-66.83a7.502 7.502 0 0 0-8.753-5.991 7.5 7.5 0 0 0-5.991 8.752c.512 2.734 1.03 5.463 1.551 8.185C74.602 362.92 21.357 308.856 15.18 242.894c-2.423-25.854 20.436-47.689 46.714-44.345 21.39 2.73 37.388 21.899 36.422 43.64-1.147 25.769 15.881 49.171 42.775 59.495.989 6.021 2.011 12.086 3.066 18.174a7.5 7.5 0 1 0 14.779-2.56C145.51 239.778 139.5 181.183 139.5 157.5c0-33.803 12.044-66.577 33.914-92.283a7.5 7.5 0 0 0-11.426-9.719C137.814 83.914 124.5 120.139 124.5 157.5c0 23.991 5.324 72.251 13.732 126.313-15.993-9.06-25.668-24.42-24.933-40.956 1.311-29.478-20.437-55.475-49.508-59.185C29.897 179.343.066 205.87 0 238.981a56.05 56.05 0 0 0 .243 5.313c6.904 73.703 67.225 135.098 153.696 128.208a1999.226 1999.226 0 0 0 9.313 44.32C175.591 472.3 224.957 512 282 512c28.659 0 56.515-10.175 78.433-28.652a7.5 7.5 0 0 0-9.668-11.469zM251.948 76.841a7.5 7.5 0 0 0-10.607 0c-22.419 22.419-22.419 58.898 0 81.317 22.418 22.418 58.898 22.42 81.318 0 22.419-22.419 22.419-58.898 0-81.317a7.5 7.5 0 0 0-10.607 10.606c16.571 16.571 16.571 43.534 0 60.104-16.57 16.57-43.533 16.57-60.104 0-16.571-16.571-16.571-43.534 0-60.104a7.5 7.5 0 0 0 0-10.606zM467.549 318.17l2.652-2.652a7.5 7.5 0 1 0-10.606-10.606l-2.651 2.651-2.651-2.651c-2.93-2.93-7.678-2.929-10.607 0s-2.929 7.678.001 10.606l2.652 2.652-2.652 2.652a7.5 7.5 0 0 0 10.606 10.606l2.651-2.651c2.627 2.627 4.243 4.848 7.955 4.848 6.622 0 10.043-8.065 5.303-12.803z" fill="#dde6ed" data-original="#000000" class="" opacity="1"></path><path d="M43.5 255.782a7.5 7.5 0 0 0 10.607 0l2.651-2.651 2.651 2.651a7.5 7.5 0 0 0 10.606-10.606l-2.652-2.652 2.652-2.652a7.5 7.5 0 0 0-10.606-10.606l-2.651 2.651-2.651-2.651c-2.93-2.93-7.678-2.929-10.607 0s-2.929 7.678.001 10.606l2.652 2.652-2.652 2.652a7.498 7.498 0 0 0-.001 10.606zM428.17 267.899c7.189-48.628 11.33-89.208 11.33-110.399C439.5 70.654 368.846 0 282 0c-35.707 0-69.376 11.651-97.367 33.694a7.5 7.5 0 0 0 9.281 11.784C219.234 25.54 249.693 15 282 15c78.575 0 142.5 63.925 142.5 142.5 0 40.299-15.428 152.81-38.395 256.065-3.024 13.596-8.58 26.268-16.513 37.666a7.5 7.5 0 0 0 12.312 8.568 121.167 121.167 0 0 0 10.007-17.247C472.942 433.868 512 362.147 512 313.368c0-40.631-46.721-68.638-83.83-45.469zm-30.01 158.632c4.116-13.272 17.155-77.287 26.361-134.922 14.292-20.226 42.789-22.767 60.5-5.639 8.6 8.316 12.903 19.797 11.807 31.5-5.284 56.441-45.151 99.767-98.668 109.061zM183.999 165c-12.406 0-22.5 10.093-22.5 22.5s10.094 22.5 22.5 22.5 22.5-10.093 22.5-22.5-10.094-22.5-22.5-22.5zm0 30c-4.136 0-7.5-3.364-7.5-7.5s3.364-7.5 7.5-7.5 7.5 3.364 7.5 7.5-3.364 7.5-7.5 7.5zM276.499 327.5c0-12.407-10.094-22.5-22.5-22.5s-22.5 10.093-22.5 22.5 10.094 22.5 22.5 22.5 22.5-10.093 22.5-22.5zm-22.5 7.5c-4.136 0-7.5-3.364-7.5-7.5s3.364-7.5 7.5-7.5 7.5 3.364 7.5 7.5-3.364 7.5-7.5 7.5zM233.999 415c-12.406 0-22.5 10.093-22.5 22.5s10.094 22.5 22.5 22.5 22.5-10.093 22.5-22.5-10.094-22.5-22.5-22.5zm0 30c-4.136 0-7.5-3.364-7.5-7.5s3.364-7.5 7.5-7.5 7.5 3.364 7.5 7.5-3.364 7.5-7.5 7.5z" fill="#dde6ed" data-original="#000000" class="" opacity="1"></path><path d="M343.999 365c-12.406 0-22.5 10.093-22.5 22.5s10.094 22.5 22.5 22.5 22.5-10.093 22.5-22.5-10.094-22.5-22.5-22.5zm0 30c-4.136 0-7.5-3.364-7.5-7.5s3.364-7.5 7.5-7.5 7.5 3.364 7.5 7.5-3.364 7.5-7.5 7.5zM406.499 197.5c0-12.407-10.094-22.5-22.5-22.5s-22.5 10.093-22.5 22.5 10.094 22.5 22.5 22.5 22.5-10.093 22.5-22.5zm-30 0c0-4.136 3.364-7.5 7.5-7.5s7.5 3.364 7.5 7.5-3.364 7.5-7.5 7.5-7.5-3.364-7.5-7.5zM372.999 130c12.406 0 22.5-10.093 22.5-22.5S385.405 85 372.999 85s-22.5 10.093-22.5 22.5 10.094 22.5 22.5 22.5zm0-30c4.136 0 7.5 3.364 7.5 7.5s-3.364 7.5-7.5 7.5-7.5-3.364-7.5-7.5 3.364-7.5 7.5-7.5zM84 329c12.406 0 22.5-10.093 22.5-22.5S96.406 284 84 284s-22.5 10.093-22.5 22.5S71.594 329 84 329zm0-30c4.136 0 7.5 3.364 7.5 7.5S88.136 314 84 314s-7.5-3.364-7.5-7.5 3.364-7.5 7.5-7.5z" fill="#dde6ed" data-original="#000000" class="" opacity="1"></path><circle cx="186.499" cy="114.721" r="7.5" fill="#dde6ed" data-original="#000000" class="" opacity="1"></circle><circle cx="306.499" cy="44.721" r="7.5" fill="#dde6ed" data-original="#000000" class="" opacity="1"></circle><circle cx="126.499" cy="324.721" r="7.5" fill="#dde6ed" data-original="#000000" class="" opacity="1"></circle><circle cx="446.499" cy="374.721" r="7.5" fill="#dde6ed" data-original="#000000" class="" opacity="1"></circle><circle cx="376.499" cy="294.721" r="7.5" fill="#dde6ed" data-original="#000000" class="" opacity="1"></circle><circle cx="206.499" cy="374.721" r="7.5" fill="#dde6ed" data-original="#000000" class="" opacity="1"></circle><circle cx="306.499" cy="454.721" r="7.5" fill="#dde6ed" data-original="#000000" class="" opacity="1"></circle></g></svg>