<svg xmlns="http://www.w3.org/2000/svg" version="1.1" xmlns:xlink="http://www.w3.org/1999/xlink" xmlns:svgjs="http://svgjs.com/svgjs" width="512" height="512" x="0" y="0" viewBox="0 0 300 300" style="enable-background:new 0 0 512 512" xml:space="preserve" class=""><g><path d="M243.914 231.372a4 4 0 0 0-5.656 0L234 235.63l-4.258-4.258a4 4 0 1 0-5.656 5.656l4.258 4.258-4.258 4.258a4 4 0 1 0 5.656 5.656l4.258-4.258 4.258 4.258c.781.781 1.805 1.172 2.828 1.172s2.047-.391 2.828-1.172a4 4 0 0 0 0-5.656l-4.258-4.258 4.258-4.258a3.997 3.997 0 0 0 0-5.656zM252 168.735a4.53 4.53 0 1 0 0 9.06 4.53 4.53 0 0 0 0-9.06zM48 44.735a4.53 4.53 0 1 0 0 9.06 4.53 4.53 0 0 0 0-9.06zM194 179.265c-6.617 0-12 5.383-12 12s5.383 12 12 12 12-5.383 12-12-5.383-12-12-12zm0 16c-2.207 0-4-1.795-4-4s1.793-4 4-4 4 1.795 4 4-1.793 4-4 4z" fill="#dde6ed" data-original="#000000" opacity="1" class=""></path><path d="M200 163.265c29.777 0 54-24.225 54-54 0-31.079-24.592-56.455-55.33-57.865-.226-.04-1.723-.118-2.259-.115-.139-.001-.272-.021-.411-.021h-82c-26.469 0-48 21.533-48 48v42.344l-6.828 6.828a4.004 4.004 0 0 0-1.02 3.928L66 179.825v23.439c0 14.255 10.581 26.003 24.696 27.737.413.145.842.263 1.304.263h2c.32 0 .603-.111.901-.182 10.122-.592 19.448-4.24 27.099-10.039v30.221c0 2.209 1.789 4 4 4s4-1.791 4-4v-37.588c0-.05-.027-.091-.028-.14C137.441 204.787 142 193.51 142 181.264c0-8.096 5.406-14.879 12.772-17.135l3.231 87.283a3.998 3.998 0 0 0 3.992 3.852c.051 0 .102 0 .152-.002a4 4 0 0 0 3.848-4.146l-3.252-87.852H200zm-66 18c0 22.61-18.377 41.403-40.74 41.946-.053-.004-.085.003-.133.002A19.927 19.927 0 0 1 74 203.265v-24c0-.371-.051-.742-.152-1.1l-7.355-25.736 6.336-6.336a4.001 4.001 0 0 0 1.172-2.828v-44c0-22.057 17.945-40 40-40h30.313c-23.776 8.737-29.64 21.608-29.989 22.424a3.998 3.998 0 0 0 2.102 5.252 3.965 3.965 0 0 0 1.574.326 4 4 0 0 0 3.676-2.426c.108-.254 11.545-25.133 74.716-25.556C223.78 59.498 246 81.827 246 109.265c0 25.365-20.637 46-46 46h-40c-14.336 0-26 11.664-26 26z" fill="#dde6ed" data-original="#000000" opacity="1" class=""></path><path d="M121.012 110.165c-9.176-3.275-19.086-2.098-27.191 3.242-8.098 5.34-13.09 13.984-13.695 23.713a4.006 4.006 0 0 0 2.648 4.018A30.945 30.945 0 0 0 93.2 142.96c5.883 0 11.68-1.715 16.766-5.064 8.098-5.34 13.09-13.984 13.695-23.713a4.004 4.004 0 0 0-2.649-4.018zm-15.453 21.051c-5.094 3.357-11.172 4.482-17.035 3.25 1.184-5.893 4.613-11.021 9.703-14.379s11.164-4.492 17.035-3.25c-1.184 5.893-4.613 11.022-9.703 14.379zM166 111.265c0-8.822-7.176-16-16-16-2.211 0-4 1.791-4 4s1.789 4 4 4c4.41 0 8 3.588 8 8s-3.59 8-8 8c-2.211 0-4 1.791-4 4v12c0 2.209 1.789 4 4 4s4-1.791 4-4v-8.506c6.895-1.781 12-8.053 12-15.494z" fill="#dde6ed" data-original="#000000" opacity="1" class=""></path></g></svg>