<?xml version="1.0" ?><svg style="enable-background:new 0 0 128 128;" version="1.1" viewBox="0 0 128 128" xml:space="preserve" xmlns="http://www.w3.org/2000/svg" xmlns:xlink="http://www.w3.org/1999/xlink"><style type="text/css">
	.st0{display:none;}
	.st1{display:inline;}
	.st2{fill:none;stroke:#000000;stroke-width:0.1;stroke-miterlimit:10;}
	.st3{fill:none;stroke:#000000;stroke-width:5;stroke-miterlimit:10;}
	.st4{fill:none;stroke:#020202;stroke-width:5;stroke-miterlimit:10;}
	.st5{fill:none;stroke:#000000;stroke-width:5;stroke-linecap:round;stroke-miterlimit:10;}
	.st6{fill:none;stroke:#000000;stroke-width:5;stroke-linecap:round;stroke-linejoin:round;}
	.st7{fill:none;stroke:#000000;stroke-width:5;stroke-linecap:round;stroke-linejoin:round;stroke-miterlimit:10;}
	.st8{fill:none;stroke:#000000;stroke-width:5;stroke-miterlimit:10;stroke-dasharray:2.0066,2.0066;}
	.st9{fill:none;}
	.st10{fill:none;stroke:#000000;stroke-width:5;stroke-miterlimit:10;stroke-dasharray:2;}
	.st11{fill:none;stroke:#000000;stroke-width:5;stroke-miterlimit:10;stroke-dasharray:3;}
	.st12{fill:none;stroke:#000000;stroke-width:5;stroke-linejoin:round;stroke-miterlimit:10;}
</style><g class="st0" id="Layer_1"><g class="st1" id="XMLID_412_"><rect class="st2" height="128" id="XMLID_475_" width="128"/><line class="st2" id="XMLID_474_" x1="0" x2="128" y1="124" y2="124"/><line class="st2" id="XMLID_473_" x1="0" x2="128" y1="120" y2="120"/><line class="st2" id="XMLID_472_" x1="0" x2="128" y1="116" y2="116"/><line class="st2" id="XMLID_471_" x1="0" x2="128" y1="112" y2="112"/><line class="st2" id="XMLID_470_" x1="0" x2="128" y1="108" y2="108"/><line class="st2" id="XMLID_469_" x1="0" x2="128" y1="104" y2="104"/><line class="st2" id="XMLID_468_" x1="0" x2="128" y1="100" y2="100"/><line class="st2" id="XMLID_467_" x1="0" x2="128" y1="96" y2="96"/><line class="st2" id="XMLID_466_" x1="0" x2="128" y1="92" y2="92"/><line class="st2" id="XMLID_465_" x1="0" x2="128" y1="88" y2="88"/><line class="st2" id="XMLID_464_" x1="0" x2="128" y1="84" y2="84"/><line class="st2" id="XMLID_463_" x1="0" x2="128" y1="80" y2="80"/><line class="st2" id="XMLID_462_" x1="0" x2="128" y1="76" y2="76"/><line class="st2" id="XMLID_461_" x1="0" x2="128" y1="72" y2="72"/><line class="st2" id="XMLID_460_" x1="0" x2="128" y1="68" y2="68"/><line class="st2" id="XMLID_459_" x1="0" x2="128" y1="64" y2="64"/><line class="st2" id="XMLID_458_" x1="0" x2="128" y1="60" y2="60"/><line class="st2" id="XMLID_457_" x1="0" x2="128" y1="56" y2="56"/><line class="st2" id="XMLID_456_" x1="0" x2="128" y1="52" y2="52"/><line class="st2" id="XMLID_455_" x1="0" x2="128" y1="48" y2="48"/><line class="st2" id="XMLID_454_" x1="0" x2="128" y1="44" y2="44"/><line class="st2" id="XMLID_453_" x1="0" x2="128" y1="40" y2="40"/><line class="st2" id="XMLID_452_" x1="0" x2="128" y1="36" y2="36"/><line class="st2" id="XMLID_451_" x1="0" x2="128" y1="32" y2="32"/><line class="st2" id="XMLID_450_" x1="0" x2="128" y1="28" y2="28"/><line class="st2" id="XMLID_449_" x1="0" x2="128" y1="24" y2="24"/><line class="st2" id="XMLID_448_" x1="0" x2="128" y1="20" y2="20"/><line class="st2" id="XMLID_447_" x1="0" x2="128" y1="16" y2="16"/><line class="st2" id="XMLID_446_" x1="0" x2="128" y1="12" y2="12"/><line class="st2" id="XMLID_445_" x1="0" x2="128" y1="8" y2="8"/><line class="st2" id="XMLID_444_" x1="0" x2="128" y1="4" y2="4"/><line class="st2" id="XMLID_443_" x1="124" x2="124" y1="0" y2="128"/><line class="st2" id="XMLID_442_" x1="120" x2="120" y1="0" y2="128"/><line class="st2" id="XMLID_441_" x1="116" x2="116" y1="0" y2="128"/><line class="st2" id="XMLID_440_" x1="112" x2="112" y1="0" y2="128"/><line class="st2" id="XMLID_439_" x1="108" x2="108" y1="0" y2="128"/><line class="st2" id="XMLID_438_" x1="104" x2="104" y1="0" y2="128"/><line class="st2" id="XMLID_437_" x1="100" x2="100" y1="0" y2="128"/><line class="st2" id="XMLID_436_" x1="96" x2="96" y1="0" y2="128"/><line class="st2" id="XMLID_435_" x1="92" x2="92" y1="0" y2="128"/><line class="st2" id="XMLID_434_" x1="88" x2="88" y1="0" y2="128"/><line class="st2" id="XMLID_433_" x1="84" x2="84" y1="0" y2="128"/><line class="st2" id="XMLID_432_" x1="80" x2="80" y1="0" y2="128"/><line class="st2" id="XMLID_431_" x1="76" x2="76" y1="0" y2="128"/><line class="st2" id="XMLID_430_" x1="72" x2="72" y1="0" y2="128"/><line class="st2" id="XMLID_429_" x1="68" x2="68" y1="0" y2="128"/><line class="st2" id="XMLID_428_" x1="64" x2="64" y1="0" y2="128"/><line class="st2" id="XMLID_427_" x1="60" x2="60" y1="0" y2="128"/><line class="st2" id="XMLID_426_" x1="56" x2="56" y1="0" y2="128"/><line class="st2" id="XMLID_425_" x1="52" x2="52" y1="0" y2="128"/><line class="st2" id="XMLID_424_" x1="48" x2="48" y1="0" y2="128"/><line class="st2" id="XMLID_423_" x1="44" x2="44" y1="0" y2="128"/><line class="st2" id="XMLID_422_" x1="40" x2="40" y1="0" y2="128"/><line class="st2" id="XMLID_421_" x1="36" x2="36" y1="0" y2="128"/><line class="st2" id="XMLID_420_" x1="32" x2="32" y1="0" y2="128"/><line class="st2" id="XMLID_419_" x1="28" x2="28" y1="0" y2="128"/><line class="st2" id="XMLID_418_" x1="24" x2="24" y1="0" y2="128"/><line class="st2" id="XMLID_417_" x1="20" x2="20" y1="0" y2="128"/><line class="st2" id="XMLID_416_" x1="16" x2="16" y1="0" y2="128"/><line class="st2" id="XMLID_415_" x1="12" x2="12" y1="0" y2="128"/><line class="st2" id="XMLID_414_" x1="8" x2="8" y1="0" y2="128"/><line class="st2" id="XMLID_413_" x1="4" x2="4" y1="0" y2="128"/></g></g><g id="Layer_2"><g id="XMLID_1_"><g id="XMLID_2439_"><g id="XMLID_2440_"><g id="XMLID_2444_"><line class="st3" id="XMLID_2446_" x1="21.1" x2="53.7" y1="64" y2="64"/><polyline class="st3" id="XMLID_2445_" points="44.3,54.3 53.9,63.9 44,73.7      "/></g></g></g><g id="XMLID_2441_"><g id="XMLID_2442_"><g id="XMLID_2443_"><line class="st3" id="XMLID_2448_" x1="64" x2="64" y1="70.7" y2="103.3"/><polyline class="st3" id="XMLID_2447_" points="54.3,93.9 63.9,103.5 73.7,93.6      "/></g></g></g><g id="XMLID_2449_"><g id="XMLID_2450_"><g id="XMLID_2451_"><line class="st3" id="XMLID_2453_" x1="106.9" x2="74.3" y1="64" y2="64"/><polyline class="st3" id="XMLID_2452_" points="83.7,73.7 74.1,64.1 84,54.3      "/></g></g></g><g id="XMLID_2454_"><g id="XMLID_2455_"><g id="XMLID_2456_"><line class="st3" id="XMLID_2458_" x1="64" x2="64" y1="57.3" y2="24.7"/><polyline class="st3" id="XMLID_2457_" points="73.7,34.1 64.1,24.5 54.3,34.4      "/></g></g></g><circle class="st3" cx="64" cy="64" id="XMLID_2_" r="60"/></g></g></svg>