<?xml version="1.0" ?><svg style="enable-background:new 0 0 128 128;" version="1.1" viewBox="0 0 128 128" xml:space="preserve" xmlns="http://www.w3.org/2000/svg" xmlns:xlink="http://www.w3.org/1999/xlink"><style type="text/css">
	.st0{display:none;}
	.st1{display:inline;}
	.st2{fill:none;stroke:#000000;stroke-width:0.1;stroke-miterlimit:10;}
	.st3{fill:none;stroke:#000000;stroke-width:5;stroke-miterlimit:10;}
	.st4{fill:none;stroke:#020202;stroke-width:5;stroke-miterlimit:10;}
	.st5{fill:none;stroke:#000000;stroke-width:5;stroke-linecap:round;stroke-miterlimit:10;}
	.st6{fill:none;stroke:#000000;stroke-width:5;stroke-linecap:round;stroke-linejoin:round;}
	.st7{fill:none;stroke:#000000;stroke-width:5;stroke-linecap:round;stroke-linejoin:round;stroke-miterlimit:10;}
	.st8{fill:none;stroke:#000000;stroke-width:5;stroke-miterlimit:10;stroke-dasharray:2.0066,2.0066;}
	.st9{fill:none;}
	.st10{fill:none;stroke:#000000;stroke-width:5;stroke-miterlimit:10;stroke-dasharray:2;}
	.st11{fill:none;stroke:#000000;stroke-width:5;stroke-miterlimit:10;stroke-dasharray:3;}
	.st12{fill:none;stroke:#000000;stroke-width:5;stroke-linejoin:round;stroke-miterlimit:10;}
</style><g class="st0" id="Layer_1"><g class="st1" id="XMLID_181_"><rect class="st2" height="128" id="XMLID_244_" width="128"/><line class="st2" id="XMLID_243_" x1="0" x2="128" y1="124" y2="124"/><line class="st2" id="XMLID_242_" x1="0" x2="128" y1="120" y2="120"/><line class="st2" id="XMLID_241_" x1="0" x2="128" y1="116" y2="116"/><line class="st2" id="XMLID_240_" x1="0" x2="128" y1="112" y2="112"/><line class="st2" id="XMLID_239_" x1="0" x2="128" y1="108" y2="108"/><line class="st2" id="XMLID_238_" x1="0" x2="128" y1="104" y2="104"/><line class="st2" id="XMLID_237_" x1="0" x2="128" y1="100" y2="100"/><line class="st2" id="XMLID_236_" x1="0" x2="128" y1="96" y2="96"/><line class="st2" id="XMLID_235_" x1="0" x2="128" y1="92" y2="92"/><line class="st2" id="XMLID_234_" x1="0" x2="128" y1="88" y2="88"/><line class="st2" id="XMLID_233_" x1="0" x2="128" y1="84" y2="84"/><line class="st2" id="XMLID_232_" x1="0" x2="128" y1="80" y2="80"/><line class="st2" id="XMLID_231_" x1="0" x2="128" y1="76" y2="76"/><line class="st2" id="XMLID_230_" x1="0" x2="128" y1="72" y2="72"/><line class="st2" id="XMLID_229_" x1="0" x2="128" y1="68" y2="68"/><line class="st2" id="XMLID_228_" x1="0" x2="128" y1="64" y2="64"/><line class="st2" id="XMLID_227_" x1="0" x2="128" y1="60" y2="60"/><line class="st2" id="XMLID_226_" x1="0" x2="128" y1="56" y2="56"/><line class="st2" id="XMLID_225_" x1="0" x2="128" y1="52" y2="52"/><line class="st2" id="XMLID_224_" x1="0" x2="128" y1="48" y2="48"/><line class="st2" id="XMLID_223_" x1="0" x2="128" y1="44" y2="44"/><line class="st2" id="XMLID_222_" x1="0" x2="128" y1="40" y2="40"/><line class="st2" id="XMLID_221_" x1="0" x2="128" y1="36" y2="36"/><line class="st2" id="XMLID_220_" x1="0" x2="128" y1="32" y2="32"/><line class="st2" id="XMLID_219_" x1="0" x2="128" y1="28" y2="28"/><line class="st2" id="XMLID_218_" x1="0" x2="128" y1="24" y2="24"/><line class="st2" id="XMLID_217_" x1="0" x2="128" y1="20" y2="20"/><line class="st2" id="XMLID_216_" x1="0" x2="128" y1="16" y2="16"/><line class="st2" id="XMLID_215_" x1="0" x2="128" y1="12" y2="12"/><line class="st2" id="XMLID_214_" x1="0" x2="128" y1="8" y2="8"/><line class="st2" id="XMLID_213_" x1="0" x2="128" y1="4" y2="4"/><line class="st2" id="XMLID_212_" x1="124" x2="124" y1="0" y2="128"/><line class="st2" id="XMLID_211_" x1="120" x2="120" y1="0" y2="128"/><line class="st2" id="XMLID_210_" x1="116" x2="116" y1="0" y2="128"/><line class="st2" id="XMLID_209_" x1="112" x2="112" y1="0" y2="128"/><line class="st2" id="XMLID_208_" x1="108" x2="108" y1="0" y2="128"/><line class="st2" id="XMLID_207_" x1="104" x2="104" y1="0" y2="128"/><line class="st2" id="XMLID_206_" x1="100" x2="100" y1="0" y2="128"/><line class="st2" id="XMLID_205_" x1="96" x2="96" y1="0" y2="128"/><line class="st2" id="XMLID_204_" x1="92" x2="92" y1="0" y2="128"/><line class="st2" id="XMLID_203_" x1="88" x2="88" y1="0" y2="128"/><line class="st2" id="XMLID_202_" x1="84" x2="84" y1="0" y2="128"/><line class="st2" id="XMLID_201_" x1="80" x2="80" y1="0" y2="128"/><line class="st2" id="XMLID_200_" x1="76" x2="76" y1="0" y2="128"/><line class="st2" id="XMLID_199_" x1="72" x2="72" y1="0" y2="128"/><line class="st2" id="XMLID_198_" x1="68" x2="68" y1="0" y2="128"/><line class="st2" id="XMLID_197_" x1="64" x2="64" y1="0" y2="128"/><line class="st2" id="XMLID_196_" x1="60" x2="60" y1="0" y2="128"/><line class="st2" id="XMLID_195_" x1="56" x2="56" y1="0" y2="128"/><line class="st2" id="XMLID_194_" x1="52" x2="52" y1="0" y2="128"/><line class="st2" id="XMLID_193_" x1="48" x2="48" y1="0" y2="128"/><line class="st2" id="XMLID_192_" x1="44" x2="44" y1="0" y2="128"/><line class="st2" id="XMLID_191_" x1="40" x2="40" y1="0" y2="128"/><line class="st2" id="XMLID_190_" x1="36" x2="36" y1="0" y2="128"/><line class="st2" id="XMLID_189_" x1="32" x2="32" y1="0" y2="128"/><line class="st2" id="XMLID_188_" x1="28" x2="28" y1="0" y2="128"/><line class="st2" id="XMLID_187_" x1="24" x2="24" y1="0" y2="128"/><line class="st2" id="XMLID_186_" x1="20" x2="20" y1="0" y2="128"/><line class="st2" id="XMLID_185_" x1="16" x2="16" y1="0" y2="128"/><line class="st2" id="XMLID_184_" x1="12" x2="12" y1="0" y2="128"/><line class="st2" id="XMLID_183_" x1="8" x2="8" y1="0" y2="128"/><line class="st2" id="XMLID_182_" x1="4" x2="4" y1="0" y2="128"/></g></g><g id="Layer_2"><g id="XMLID_2339_"><rect class="st3" height="120" id="XMLID_2323_" width="120" x="4" y="4"/><g id="XMLID_2338_"><g id="XMLID_2328_"><line class="st3" id="XMLID_2327_" x1="74.8" x2="103.1" y1="34" y2="34"/><polyline class="st3" id="XMLID_2324_" points="94.9,25.6 103.2,33.9 94.7,42.4     "/></g><g id="XMLID_2329_"><line class="st3" id="XMLID_2331_" x1="74.8" x2="103.1" y1="74" y2="74"/><polyline class="st3" id="XMLID_2330_" points="94.9,65.6 103.2,73.9 94.7,82.4     "/></g><g id="XMLID_2335_"><line class="st3" id="XMLID_2337_" x1="53.2" x2="24.9" y1="54" y2="54"/><polyline class="st3" id="XMLID_2336_" points="33.1,45.6 24.8,53.9 33.3,62.4     "/></g><g id="XMLID_2332_"><line class="st3" id="XMLID_2334_" x1="53.2" x2="24.9" y1="94" y2="94"/><polyline class="st3" id="XMLID_2333_" points="33.1,85.6 24.8,93.9 33.3,102.4     "/></g></g></g></g></svg>