<?xml version="1.0" ?><svg id="Layer_1" style="enable-background:new 0 0 50 50;" version="1.1" viewBox="0 0 50 50" xml:space="preserve" xmlns="http://www.w3.org/2000/svg" xmlns:xlink="http://www.w3.org/1999/xlink"><style type="text/css">
	.st0{fill:#B7C5FD;}
	.st1{fill:#9AADFD;}
	.st2{fill:#FFFFFF;}
	.st3{fill:#3955D1;}
	.st4{fill:#4466FB;}
	.st5{fill:#AABAFD;}
	.st6{fill:#798FFE;}
	.st7{fill:#6BB5FB;}
	.st8{enable-background:new    ;}
	.st9{fill:#1B2A4F;}
	.st10{fill:url(#);}
	.st11{fill:#384E85;}
	.st12{fill:#2E4277;}
	.st13{fill:#D9DDF6;}
	.st14{fill:#535D88;}
	.st15{fill:#2B3C67;}
	.st16{fill:#8FCCFF;}
	.st17{fill:#8CA1FD;}
	.st18{opacity:0.3;}
	.st19{opacity:0.3;fill:#4466FB;}
	.st20{opacity:0.2;}
</style><g><g><g><polygon class="st9" points="25.54302,15.38768 38.72584,8.41863 38.70959,40.6161 25.52678,48.27712    "/></g><g><polygon class="st11" points="12.69358,8.66102 25.8764,1 38.72584,8.41863 25.54302,16.07965    "/></g><g><polygon class="st12" points="25.54302,16.07965 25.52678,48.27712 12.67733,40.85849 12.69358,8.66102    "/><g><polygon class="st11" points="14.24547,10.45441 13.46962,10.00652 13.45444,40.4098 24.75047,46.93187 24.75123,45.96164       14.23106,39.8875     "/><polygon class="st9" points="14.24547,10.45441 14.23106,39.8875 24.75123,45.96164 24.76641,16.52783     "/></g></g></g><g><polygon class="st12" points="23.97174,17.62818 23.96078,21.11686 15.29437,16.1133 15.30533,12.62462   "/><g><g><g><polygon class="st3" points="17.39919,14.86056 17.71231,14.67859 17.70084,16.92286 17.38771,17.10483      "/></g><g><polygon class="st7" points="16.85016,14.54358 17.16329,14.36161 17.71231,14.67859 17.39919,14.86056      "/></g><polygon class="st4" points="17.39919,14.86056 17.38771,17.10483 16.83869,16.78785 16.85016,14.54358     "/></g><g><g><polygon class="st3" points="18.51937,15.50729 18.83249,15.32533 18.82102,17.5696 18.50789,17.75157      "/></g><g><polygon class="st7" points="17.97034,15.19031 18.28347,15.00834 18.83249,15.32533 18.51937,15.50729      "/></g><polygon class="st4" points="18.51937,15.50729 18.50789,17.75157 17.95887,17.43459 17.97034,15.19031     "/></g><g><g><polygon class="st3" points="19.63955,16.15403 19.95267,15.97206 19.9412,18.21634 19.62807,18.3983      "/></g><g><polygon class="st7" points="19.09052,15.83705 19.40365,15.65508 19.95267,15.97206 19.63955,16.15403      "/></g><polygon class="st4" points="19.63955,16.15403 19.62807,18.3983 19.07904,18.08132 19.09052,15.83705     "/></g><g><g><polygon class="st3" points="20.75973,16.80077 21.07285,16.6188 21.06138,18.86307 20.74825,19.04504      "/></g><g><polygon class="st7" points="20.2107,16.48379 20.52383,16.30182 21.07285,16.6188 20.75973,16.80077      "/></g><polygon class="st4" points="20.75973,16.80077 20.74825,19.04504 20.19922,18.72806 20.2107,16.48379     "/></g><g><g><polygon class="st3" points="21.87991,17.4475 22.19303,17.26553 22.18156,19.50981 21.86843,19.69177      "/></g><g><polygon class="st7" points="21.33088,17.13052 21.644,16.94855 22.19303,17.26553 21.87991,17.4475      "/></g><polygon class="st4" points="21.87991,17.4475 21.86843,19.69177 21.3194,19.37479 21.33088,17.13052     "/></g><g><g><polygon class="st3" points="23.00009,18.09424 23.31321,17.91227 23.30174,20.15654 22.98861,20.33851      "/></g><g><polygon class="st7" points="22.45106,17.77726 22.76418,17.59529 23.31321,17.91227 23.00009,18.09424      "/></g><polygon class="st4" points="23.00009,18.09424 22.98861,20.33851 22.43958,20.02153 22.45106,17.77726     "/></g><g><g><polygon class="st3" points="16.27901,14.21382 16.59214,14.03185 16.58066,16.27613 16.26753,16.4581      "/></g><g><polygon class="st7" points="15.72998,13.89684 16.04311,13.71487 16.59214,14.03185 16.27901,14.21382      "/></g><polygon class="st4" points="16.27901,14.21382 16.26753,16.4581 15.71851,16.14111 15.72998,13.89684     "/></g></g></g><g><polygon class="st12" points="23.97174,22.26909 23.96078,25.75777 15.29437,20.75422 15.30533,17.26553   "/><g><g><g><polygon class="st3" points="17.39919,19.50147 17.71231,19.3195 17.70084,21.56378 17.38771,21.74574      "/></g><g><polygon class="st7" points="16.85016,19.18449 17.16329,19.00252 17.71231,19.3195 17.39919,19.50147      "/></g><polygon class="st4" points="17.39919,19.50147 17.38771,21.74574 16.83869,21.42876 16.85016,19.18449     "/></g><g><g><polygon class="st3" points="18.51937,20.14821 18.83249,19.96624 18.82102,22.21051 18.50789,22.39248      "/></g><g><polygon class="st7" points="17.97034,19.83123 18.28347,19.64926 18.83249,19.96624 18.51937,20.14821      "/></g><polygon class="st4" points="18.51937,20.14821 18.50789,22.39248 17.95887,22.0755 17.97034,19.83123     "/></g><g><g><polygon class="st3" points="19.63955,20.79494 19.95267,20.61298 19.9412,22.85725 19.62807,23.03922      "/></g><g><polygon class="st7" points="19.09052,20.47796 19.40365,20.29599 19.95267,20.61298 19.63955,20.79494      "/></g><polygon class="st4" points="19.63955,20.79494 19.62807,23.03922 19.07904,22.72223 19.09052,20.47796     "/></g><g><g><polygon class="st3" points="20.75973,21.44168 21.07285,21.25971 21.06138,23.50398 20.74825,23.68595      "/></g><g><polygon class="st7" points="20.2107,21.1247 20.52383,20.94273 21.07285,21.25971 20.75973,21.44168      "/></g><polygon class="st4" points="20.75973,21.44168 20.74825,23.68595 20.19922,23.36897 20.2107,21.1247     "/></g><g><g><polygon class="st3" points="21.87991,22.08842 22.19303,21.90645 22.18156,24.15072 21.86843,24.33269      "/></g><g><polygon class="st7" points="21.33088,21.77143 21.644,21.58947 22.19303,21.90645 21.87991,22.08842      "/></g><polygon class="st4" points="21.87991,22.08842 21.86843,24.33269 21.3194,24.01571 21.33088,21.77143     "/></g><g><g><polygon class="st3" points="23.00009,22.73515 23.31321,22.55318 23.30174,24.79746 22.98861,24.97942      "/></g><g><polygon class="st7" points="22.45106,22.41817 22.76418,22.2362 23.31321,22.55318 23.00009,22.73515      "/></g><polygon class="st4" points="23.00009,22.73515 22.98861,24.97942 22.43958,24.66244 22.45106,22.41817     "/></g><g><g><polygon class="st3" points="16.27901,18.85474 16.59214,18.67277 16.58066,20.91704 16.26753,21.09901      "/></g><g><polygon class="st7" points="15.72998,18.53775 16.04311,18.35579 16.59214,18.67277 16.27901,18.85474      "/></g><polygon class="st4" points="16.27901,18.85474 16.26753,21.09901 15.71851,20.78203 15.72998,18.53775     "/></g></g></g><g><polygon class="st12" points="23.97174,26.91 23.96078,30.39869 15.29437,25.39513 15.30533,21.90645   "/><g><g><g><polygon class="st3" points="17.39919,24.14239 17.71231,23.96042 17.70084,26.20469 17.38771,26.38666      "/></g><g><polygon class="st7" points="16.85016,23.8254 17.16329,23.64343 17.71231,23.96042 17.39919,24.14239      "/></g><polygon class="st4" points="17.39919,24.14239 17.38771,26.38666 16.83869,26.06968 16.85016,23.8254     "/></g><g><g><polygon class="st3" points="18.51937,24.78912 18.83249,24.60715 18.82102,26.85143 18.50789,27.03339      "/></g><g><polygon class="st7" points="17.97034,24.47214 18.28347,24.29017 18.83249,24.60715 18.51937,24.78912      "/></g><polygon class="st4" points="18.51937,24.78912 18.50789,27.03339 17.95887,26.71641 17.97034,24.47214     "/></g><g><g><polygon class="st3" points="19.63955,25.43586 19.95267,25.25389 19.9412,27.49816 19.62807,27.68013      "/></g><g><polygon class="st7" points="19.09052,25.11888 19.40365,24.93691 19.95267,25.25389 19.63955,25.43586      "/></g><polygon class="st4" points="19.63955,25.43586 19.62807,27.68013 19.07904,27.36315 19.09052,25.11888     "/></g><g><g><polygon class="st3" points="20.75973,26.08259 21.07285,25.90062 21.06138,28.1449 20.74825,28.32687      "/></g><g><polygon class="st7" points="20.2107,25.76561 20.52383,25.58364 21.07285,25.90062 20.75973,26.08259      "/></g><polygon class="st4" points="20.75973,26.08259 20.74825,28.32687 20.19922,28.00988 20.2107,25.76561     "/></g><g><g><polygon class="st3" points="21.87991,26.72933 22.19303,26.54736 22.18156,28.79163 21.86843,28.9736      "/></g><g><polygon class="st7" points="21.33088,26.41235 21.644,26.23038 22.19303,26.54736 21.87991,26.72933      "/></g><polygon class="st4" points="21.87991,26.72933 21.86843,28.9736 21.3194,28.65662 21.33088,26.41235     "/></g><g><g><polygon class="st3" points="23.00009,27.37606 23.31321,27.1941 23.30174,29.43837 22.98861,29.62034      "/></g><g><polygon class="st7" points="22.45106,27.05908 22.76418,26.87712 23.31321,27.1941 23.00009,27.37606      "/></g><polygon class="st4" points="23.00009,27.37606 22.98861,29.62034 22.43958,29.30336 22.45106,27.05908     "/></g><g><g><polygon class="st3" points="16.27901,23.49565 16.59214,23.31368 16.58066,25.55795 16.26753,25.73992      "/></g><g><polygon class="st7" points="15.72998,23.17867 16.04311,22.9967 16.59214,23.31368 16.27901,23.49565      "/></g><polygon class="st4" points="16.27901,23.49565 16.26753,25.73992 15.71851,25.42294 15.72998,23.17867     "/></g></g></g><g><polygon class="st12" points="23.97174,31.55091 23.96078,35.0396 15.29437,30.03604 15.30533,26.54736   "/><g><g><g><polygon class="st3" points="17.39919,28.7833 17.71231,28.60133 17.70084,30.8456 17.38771,31.02757      "/></g><g><polygon class="st7" points="16.85016,28.46632 17.16329,28.28435 17.71231,28.60133 17.39919,28.7833      "/></g><polygon class="st4" points="17.39919,28.7833 17.38771,31.02757 16.83869,30.71059 16.85016,28.46632     "/></g><g><g><polygon class="st3" points="18.51937,29.43003 18.83249,29.24807 18.82102,31.49234 18.50789,31.67431      "/></g><g><polygon class="st7" points="17.97034,29.11305 18.28347,28.93108 18.83249,29.24807 18.51937,29.43003      "/></g><polygon class="st4" points="18.51937,29.43003 18.50789,31.67431 17.95887,31.35732 17.97034,29.11305     "/></g><g><g><polygon class="st3" points="19.63955,30.07677 19.95267,29.8948 19.9412,32.13908 19.62807,32.32104      "/></g><g><polygon class="st7" points="19.09052,29.75979 19.40365,29.57782 19.95267,29.8948 19.63955,30.07677      "/></g><polygon class="st4" points="19.63955,30.07677 19.62807,32.32104 19.07904,32.00406 19.09052,29.75979     "/></g><g><g><polygon class="st3" points="20.75973,30.72351 21.07285,30.54154 21.06138,32.78581 20.74825,32.96778      "/></g><g><polygon class="st7" points="20.2107,30.40652 20.52383,30.22456 21.07285,30.54154 20.75973,30.72351      "/></g><polygon class="st4" points="20.75973,30.72351 20.74825,32.96778 20.19922,32.6508 20.2107,30.40652     "/></g><g><g><polygon class="st3" points="21.87991,31.37024 22.19303,31.18827 22.18156,33.43254 21.86843,33.61451      "/></g><g><polygon class="st7" points="21.33088,31.05326 21.644,30.87129 22.19303,31.18827 21.87991,31.37024      "/></g><polygon class="st4" points="21.87991,31.37024 21.86843,33.61451 21.3194,33.29753 21.33088,31.05326     "/></g><g><g><polygon class="st3" points="23.00009,32.01698 23.31321,31.83501 23.30174,34.07928 22.98861,34.26125      "/></g><g><polygon class="st7" points="22.45106,31.7 22.76418,31.51803 23.31321,31.83501 23.00009,32.01698      "/></g><polygon class="st4" points="23.00009,32.01698 22.98861,34.26125 22.43958,33.94427 22.45106,31.7     "/></g><g><g><polygon class="st3" points="16.27901,28.13656 16.59214,27.95459 16.58066,30.19887 16.26753,30.38083      "/></g><g><polygon class="st7" points="15.72998,27.81958 16.04311,27.63761 16.59214,27.95459 16.27901,28.13656      "/></g><polygon class="st4" points="16.27901,28.13656 16.26753,30.38083 15.71851,30.06385 15.72998,27.81958     "/></g></g></g><g><polygon class="st12" points="23.97174,36.19183 23.96078,39.68051 15.29437,34.67696 15.30533,31.18827   "/><g><g><g><polygon class="st3" points="17.39919,33.42421 17.71231,33.24224 17.70084,35.48652 17.38771,35.66848      "/></g><g><polygon class="st7" points="16.85016,33.10723 17.16329,32.92526 17.71231,33.24224 17.39919,33.42421      "/></g><polygon class="st4" points="17.39919,33.42421 17.38771,35.66848 16.83869,35.3515 16.85016,33.10723     "/></g><g><g><polygon class="st3" points="18.51937,34.07095 18.83249,33.88898 18.82102,36.13325 18.50789,36.31522      "/></g><g><polygon class="st7" points="17.97034,33.75397 18.28347,33.572 18.83249,33.88898 18.51937,34.07095      "/></g><polygon class="st4" points="18.51937,34.07095 18.50789,36.31522 17.95887,35.99824 17.97034,33.75397     "/></g><g><g><polygon class="st3" points="19.63955,34.71768 19.95267,34.53571 19.9412,36.77999 19.62807,36.96196      "/></g><g><polygon class="st7" points="19.09052,34.4007 19.40365,34.21873 19.95267,34.53571 19.63955,34.71768      "/></g><polygon class="st4" points="19.63955,34.71768 19.62807,36.96196 19.07904,36.64497 19.09052,34.4007     "/></g><g><g><polygon class="st3" points="20.75973,35.36442 21.07285,35.18245 21.06138,37.42672 20.74825,37.60869      "/></g><g><polygon class="st7" points="20.2107,35.04744 20.52383,34.86547 21.07285,35.18245 20.75973,35.36442      "/></g><polygon class="st4" points="20.75973,35.36442 20.74825,37.60869 20.19922,37.29171 20.2107,35.04744     "/></g><g><g><polygon class="st3" points="21.87991,36.01115 22.19303,35.82919 22.18156,38.07346 21.86843,38.25543      "/></g><g><polygon class="st7" points="21.33088,35.69417 21.644,35.5122 22.19303,35.82919 21.87991,36.01115      "/></g><polygon class="st4" points="21.87991,36.01115 21.86843,38.25543 21.3194,37.93845 21.33088,35.69417     "/></g><g><g><polygon class="st3" points="23.00009,36.65789 23.31321,36.47592 23.30174,38.7202 22.98861,38.90216      "/></g><g><polygon class="st7" points="22.45106,36.34091 22.76418,36.15894 23.31321,36.47592 23.00009,36.65789      "/></g><polygon class="st4" points="23.00009,36.65789 22.98861,38.90216 22.43958,38.58518 22.45106,36.34091     "/></g><g><g><polygon class="st3" points="16.27901,32.77747 16.59214,32.59551 16.58066,34.83978 16.26753,35.02175      "/></g><g><polygon class="st7" points="15.72998,32.46049 16.04311,32.27853 16.59214,32.59551 16.27901,32.77747      "/></g><polygon class="st4" points="16.27901,32.77747 16.26753,35.02175 15.71851,34.70477 15.72998,32.46049     "/></g></g></g><g><polygon class="st12" points="23.97174,40.83274 23.96078,44.32143 15.29437,39.31787 15.30533,35.82919   "/><g><g><g><polygon class="st3" points="17.39919,38.06512 17.71231,37.88316 17.70084,40.12743 17.38771,40.3094      "/></g><g><polygon class="st7" points="16.85016,37.74814 17.16329,37.56617 17.71231,37.88316 17.39919,38.06512      "/></g><polygon class="st4" points="17.39919,38.06512 17.38771,40.3094 16.83869,39.99242 16.85016,37.74814     "/></g><g><g><polygon class="st3" points="18.51937,38.71186 18.83249,38.52989 18.82102,40.77417 18.50789,40.95613      "/></g><g><polygon class="st7" points="17.97034,38.39488 18.28347,38.21291 18.83249,38.52989 18.51937,38.71186      "/></g><polygon class="st4" points="18.51937,38.71186 18.50789,40.95613 17.95887,40.63915 17.97034,38.39488     "/></g><g><g><polygon class="st3" points="19.63955,39.3586 19.95267,39.17663 19.9412,41.4209 19.62807,41.60287      "/></g><g><polygon class="st7" points="19.09052,39.04161 19.40365,38.85965 19.95267,39.17663 19.63955,39.3586      "/></g><polygon class="st4" points="19.63955,39.3586 19.62807,41.60287 19.07904,41.28589 19.09052,39.04161     "/></g><g><g><polygon class="st3" points="20.75973,40.00533 21.07285,39.82336 21.06138,42.06764 20.74825,42.2496      "/></g><g><polygon class="st7" points="20.2107,39.68835 20.52383,39.50638 21.07285,39.82336 20.75973,40.00533      "/></g><polygon class="st4" points="20.75973,40.00533 20.74825,42.2496 20.19922,41.93262 20.2107,39.68835     "/></g><g><g><polygon class="st3" points="21.87991,40.65207 22.19303,40.4701 22.18156,42.71437 21.86843,42.89634      "/></g><g><polygon class="st7" points="21.33088,40.33509 21.644,40.15312 22.19303,40.4701 21.87991,40.65207      "/></g><polygon class="st4" points="21.87991,40.65207 21.86843,42.89634 21.3194,42.57936 21.33088,40.33509     "/></g><g><g><polygon class="st3" points="23.00009,41.29881 23.31321,41.11684 23.30174,43.36111 22.98861,43.54308      "/></g><g><polygon class="st7" points="22.45106,40.98182 22.76418,40.79985 23.31321,41.11684 23.00009,41.29881      "/></g><polygon class="st4" points="23.00009,41.29881 22.98861,43.54308 22.43958,43.22609 22.45106,40.98182     "/></g><g><g><polygon class="st3" points="16.27901,37.41839 16.59214,37.23642 16.58066,39.48069 16.26753,39.66266      "/></g><g><polygon class="st7" points="15.72998,37.10141 16.04311,36.91944 16.59214,37.23642 16.27901,37.41839      "/></g><polygon class="st4" points="16.27901,37.41839 16.26753,39.66266 15.71851,39.34568 15.72998,37.10141     "/></g></g></g><path class="st11" d="M35.63664,39.89954c-0.04631,0.02674-0.08444,0.09279-0.08429,0.14601   c0.00015,0.05437,0.03853,0.07624,0.08485,0.0495l2.05787-1.18811c0.04631-0.02674,0.08445-0.09278,0.08429-0.14716   c-0.00015-0.05322-0.03854-0.07509-0.08485-0.04836L35.63664,39.89954z"/><path class="st11" d="M35.63535,39.44605c-0.04631,0.02674-0.08444,0.09278-0.08429,0.14715   c0.00015,0.05322,0.03853,0.0751,0.08484,0.04836l2.05787-1.18811c0.04631-0.02674,0.08445-0.09279,0.0843-0.14601   c-0.00016-0.05437-0.03854-0.07624-0.08485-0.0495L35.63535,39.44605z"/><path class="st11" d="M35.63407,38.9937c-0.04631,0.02674-0.08445,0.09163-0.08429,0.14601   c0.00015,0.05322,0.03853,0.07509,0.08484,0.04835l2.05787-1.18811c0.04631-0.02674,0.08445-0.09278,0.0843-0.146   c-0.00016-0.05438-0.03854-0.0751-0.08485-0.04836L35.63407,38.9937z"/><path class="st11" d="M35.63279,38.54021c-0.04631,0.02674-0.08445,0.09162-0.08429,0.146   c0.00015,0.05322,0.03853,0.07509,0.08485,0.04835l2.05787-1.18811c0.04631-0.02674,0.08445-0.09279,0.0843-0.146   c-0.00016-0.05438-0.03854-0.07509-0.08485-0.04835L35.63279,38.54021z"/><path class="st11" d="M35.63021,37.63322c-0.04631,0.02674-0.08445,0.09163-0.08429,0.146   c0.00015,0.05322,0.03853,0.0751,0.08485,0.04836l2.05787-1.18811c0.04631-0.02674,0.08445-0.09279,0.0843-0.14601   c-0.00016-0.05437-0.03854-0.07509-0.08485-0.04835L35.63021,37.63322z"/><path class="st11" d="M35.6315,38.08672c-0.04631,0.02674-0.08445,0.09163-0.08429,0.146   c0.00015,0.05322,0.03853,0.07509,0.08485,0.04835l2.05787-1.18811c0.04631-0.02674,0.08445-0.09278,0.0843-0.146   c-0.00016-0.05437-0.03854-0.07508-0.08485-0.04835L35.6315,38.08672z"/><path class="st11" d="M35.63664,35.77172c-0.04631,0.02674-0.08444,0.09279-0.08429,0.14601   c0.00015,0.05437,0.03853,0.07624,0.08485,0.0495l2.05787-1.18811c0.04631-0.02674,0.08445-0.09279,0.08429-0.14716   c-0.00015-0.05322-0.03854-0.0751-0.08485-0.04836L35.63664,35.77172z"/><path class="st11" d="M35.63535,35.31823c-0.04631,0.02674-0.08444,0.09278-0.08429,0.14715   c0.00015,0.05322,0.03853,0.0751,0.08484,0.04836l2.05787-1.18811c0.04631-0.02674,0.08445-0.09279,0.0843-0.14601   c-0.00016-0.05437-0.03854-0.07624-0.08485-0.0495L35.63535,35.31823z"/><path class="st11" d="M35.63407,34.86589c-0.04631,0.02674-0.08445,0.09163-0.08429,0.14601   c0.00015,0.05322,0.03853,0.07509,0.08484,0.04835l2.05787-1.18811c0.04631-0.02674,0.08445-0.09278,0.0843-0.146   c-0.00016-0.05438-0.03854-0.0751-0.08485-0.04836L35.63407,34.86589z"/><path class="st11" d="M35.63279,34.4124c-0.04631,0.02674-0.08445,0.09162-0.08429,0.146   c0.00015,0.05322,0.03853,0.07509,0.08485,0.04835l2.05787-1.18811c0.04631-0.02674,0.08445-0.09278,0.0843-0.146   c-0.00016-0.05438-0.03854-0.07508-0.08485-0.04835L35.63279,34.4124z"/><path class="st11" d="M35.63021,33.5054c-0.04631,0.02674-0.08445,0.09163-0.08429,0.146   c0.00015,0.05322,0.03853,0.0751,0.08485,0.04836l2.05787-1.18811c0.04631-0.02674,0.08445-0.0928,0.0843-0.14601   c-0.00016-0.05437-0.03854-0.07509-0.08485-0.04835L35.63021,33.5054z"/><path class="st11" d="M35.6315,33.9589c-0.04631,0.02674-0.08445,0.09163-0.08429,0.146   c0.00015,0.05322,0.03853,0.07509,0.08485,0.04835l2.05787-1.18811c0.04631-0.02674,0.08445-0.09278,0.0843-0.146   c-0.00016-0.05437-0.03854-0.07509-0.08485-0.04835L35.6315,33.9589z"/><path class="st11" d="M35.63664,31.6439c-0.04631,0.02674-0.08444,0.09279-0.08429,0.14601   c0.00015,0.05437,0.03853,0.07624,0.08485,0.0495l2.05787-1.18811c0.04631-0.02674,0.08445-0.09279,0.08429-0.14716   c-0.00015-0.05322-0.03854-0.07509-0.08485-0.04836L35.63664,31.6439z"/><path class="st11" d="M35.63535,31.19041c-0.04631,0.02674-0.08444,0.09278-0.08429,0.14715   c0.00015,0.05322,0.03853,0.0751,0.08484,0.04836l2.05787-1.18811c0.04631-0.02674,0.08445-0.09279,0.0843-0.14601   c-0.00016-0.05437-0.03854-0.07624-0.08485-0.0495L35.63535,31.19041z"/><path class="st11" d="M35.63407,30.73807c-0.04631,0.02674-0.08445,0.09163-0.08429,0.14601   c0.00015,0.05322,0.03853,0.07509,0.08484,0.04835l2.05787-1.18811c0.04631-0.02674,0.08445-0.09278,0.0843-0.146   c-0.00016-0.05438-0.03854-0.07509-0.08485-0.04836L35.63407,30.73807z"/><path class="st11" d="M35.63279,30.28458c-0.04631,0.02674-0.08445,0.09162-0.08429,0.146   c0.00015,0.05322,0.03853,0.07509,0.08485,0.04835l2.05787-1.18811c0.04631-0.02674,0.08445-0.09278,0.0843-0.146   c-0.00016-0.05438-0.03854-0.07509-0.08485-0.04835L35.63279,30.28458z"/><path class="st11" d="M35.63021,29.37758c-0.04631,0.02674-0.08445,0.09163-0.08429,0.146   c0.00015,0.05322,0.03853,0.0751,0.08485,0.04836l2.05787-1.18811c0.04631-0.02674,0.08445-0.09279,0.0843-0.14601   c-0.00016-0.05437-0.03854-0.07509-0.08485-0.04835L35.63021,29.37758z"/><path class="st11" d="M35.6315,29.83108c-0.04631,0.02674-0.08445,0.09163-0.08429,0.146   c0.00015,0.05322,0.03853,0.07509,0.08485,0.04835l2.05787-1.18811c0.04631-0.02674,0.08445-0.09279,0.0843-0.146   c-0.00016-0.05437-0.03854-0.07508-0.08485-0.04835L35.6315,29.83108z"/><path class="st11" d="M35.63664,27.51608c-0.04631,0.02674-0.08444,0.09279-0.08429,0.14601   c0.00015,0.05437,0.03853,0.07624,0.08485,0.0495l2.05787-1.18811c0.04631-0.02674,0.08445-0.09278,0.08429-0.14716   c-0.00015-0.05322-0.03854-0.07509-0.08485-0.04836L35.63664,27.51608z"/><path class="st11" d="M35.63535,27.06259c-0.04631,0.02674-0.08444,0.09278-0.08429,0.14715   c0.00015,0.05322,0.03853,0.0751,0.08484,0.04836l2.05787-1.18811c0.04631-0.02674,0.08445-0.09279,0.0843-0.14601   c-0.00016-0.05437-0.03854-0.07624-0.08485-0.0495L35.63535,27.06259z"/><path class="st11" d="M35.63407,26.61025c-0.04631,0.02674-0.08445,0.09163-0.08429,0.14601   c0.00015,0.05322,0.03853,0.07509,0.08484,0.04835l2.05787-1.18811c0.04631-0.02674,0.08445-0.09279,0.0843-0.146   c-0.00016-0.05438-0.03854-0.07509-0.08485-0.04836L35.63407,26.61025z"/><path class="st11" d="M35.63279,26.15676c-0.04631,0.02674-0.08445,0.09162-0.08429,0.146   c0.00015,0.05322,0.03853,0.07509,0.08485,0.04835l2.05787-1.18811c0.04631-0.02674,0.08445-0.09279,0.0843-0.146   c-0.00016-0.05438-0.03854-0.07509-0.08485-0.04835L35.63279,26.15676z"/><path class="st11" d="M35.63021,25.24976c-0.04631,0.02674-0.08445,0.09163-0.08429,0.146   c0.00015,0.05322,0.03853,0.0751,0.08485,0.04836l2.05787-1.18811c0.04631-0.02674,0.08445-0.09279,0.0843-0.14601   c-0.00016-0.05437-0.03854-0.07509-0.08485-0.04835L35.63021,25.24976z"/><path class="st11" d="M35.6315,25.70326c-0.04631,0.02674-0.08445,0.09163-0.08429,0.146   c0.00015,0.05322,0.03853,0.07509,0.08485,0.04835l2.05787-1.18811c0.04631-0.02674,0.08445-0.09278,0.0843-0.146   c-0.00016-0.05437-0.03854-0.07509-0.08485-0.04835L35.6315,25.70326z"/><path class="st11" d="M35.63664,23.38826c-0.04631,0.02674-0.08444,0.09279-0.08429,0.14601   c0.00015,0.05437,0.03853,0.07624,0.08485,0.0495l2.05787-1.18811c0.04631-0.02674,0.08445-0.09279,0.08429-0.14716   c-0.00015-0.05322-0.03854-0.07509-0.08485-0.04836L35.63664,23.38826z"/><path class="st11" d="M35.63535,22.93477c-0.04631,0.02674-0.08444,0.09278-0.08429,0.14715   c0.00015,0.05322,0.03853,0.0751,0.08484,0.04836l2.05787-1.18811c0.04631-0.02674,0.08445-0.09279,0.0843-0.14601   c-0.00016-0.05437-0.03854-0.07624-0.08485-0.0495L35.63535,22.93477z"/><path class="st11" d="M35.63407,22.48243c-0.04631,0.02674-0.08445,0.09163-0.08429,0.14601   c0.00015,0.05322,0.03853,0.07509,0.08484,0.04835l2.05787-1.18811c0.04631-0.02674,0.08445-0.09278,0.0843-0.146   c-0.00016-0.05438-0.03854-0.07509-0.08485-0.04836L35.63407,22.48243z"/><path class="st11" d="M35.63279,22.02894c-0.04631,0.02674-0.08445,0.09162-0.08429,0.146   c0.00015,0.05322,0.03853,0.07509,0.08485,0.04835l2.05787-1.18811c0.04631-0.02674,0.08445-0.09279,0.0843-0.146   c-0.00016-0.05438-0.03854-0.07509-0.08485-0.04835L35.63279,22.02894z"/><path class="st11" d="M35.63021,21.12195c-0.04631,0.02674-0.08445,0.09163-0.08429,0.146   c0.00015,0.05322,0.03853,0.0751,0.08485,0.04836l2.05787-1.18811c0.04631-0.02674,0.08445-0.09279,0.0843-0.14601   c-0.00016-0.05437-0.03854-0.07509-0.08485-0.04835L35.63021,21.12195z"/><path class="st11" d="M35.6315,21.57544c-0.04631,0.02674-0.08445,0.09163-0.08429,0.146   c0.00015,0.05322,0.03853,0.07509,0.08485,0.04835l2.05787-1.18811c0.04631-0.02674,0.08445-0.09279,0.0843-0.146   c-0.00016-0.05437-0.03854-0.07508-0.08485-0.04835L35.6315,21.57544z"/><path class="st11" d="M35.63664,19.26045c-0.04631,0.02674-0.08444,0.09279-0.08429,0.14601   c0.00015,0.05437,0.03853,0.07624,0.08485,0.0495l2.05787-1.18811c0.04631-0.02674,0.08445-0.09278,0.08429-0.14716   c-0.00015-0.05322-0.03854-0.07509-0.08485-0.04836L35.63664,19.26045z"/><path class="st11" d="M35.63535,18.80696c-0.04631,0.02674-0.08444,0.09278-0.08429,0.14715   c0.00015,0.05322,0.03853,0.0751,0.08484,0.04836l2.05787-1.18811c0.04631-0.02674,0.08445-0.09279,0.0843-0.14601   c-0.00016-0.05437-0.03854-0.07624-0.08485-0.0495L35.63535,18.80696z"/><path class="st11" d="M35.63407,18.35461c-0.04631,0.02674-0.08445,0.09163-0.08429,0.14601   c0.00015,0.05322,0.03853,0.07509,0.08484,0.04835l2.05787-1.18811c0.04631-0.02674,0.08445-0.09279,0.0843-0.146   c-0.00016-0.05438-0.03854-0.07509-0.08485-0.04836L35.63407,18.35461z"/><path class="st11" d="M35.63279,17.90112c-0.04631,0.02674-0.08445,0.09162-0.08429,0.146   c0.00015,0.05322,0.03853,0.07509,0.08485,0.04835l2.05787-1.18811c0.04631-0.02674,0.08445-0.09279,0.0843-0.146   c-0.00016-0.05438-0.03854-0.07509-0.08485-0.04835L35.63279,17.90112z"/><path class="st11" d="M35.63021,16.99413c-0.04631,0.02674-0.08445,0.09163-0.08429,0.146   c0.00015,0.05322,0.03853,0.0751,0.08485,0.04836l2.05787-1.18811c0.04631-0.02674,0.08445-0.09279,0.0843-0.14601   c-0.00016-0.05437-0.03854-0.07509-0.08485-0.04835L35.63021,16.99413z"/><path class="st11" d="M35.6315,17.44763c-0.04631,0.02674-0.08445,0.09163-0.08429,0.146   c0.00015,0.05322,0.03853,0.07509,0.08485,0.04835l2.05787-1.18811c0.04631-0.02674,0.08445-0.09278,0.0843-0.146   c-0.00016-0.05437-0.03854-0.07509-0.08485-0.04835L35.6315,17.44763z"/><path class="st11" d="M35.63664,15.13263c-0.04631,0.02674-0.08444,0.09279-0.08429,0.14601   c0.00015,0.05437,0.03853,0.07624,0.08485,0.0495l2.05787-1.18811c0.04631-0.02674,0.08445-0.09279,0.08429-0.14716   c-0.00015-0.05322-0.03854-0.07509-0.08485-0.04836L35.63664,15.13263z"/><path class="st11" d="M35.63535,14.67914c-0.04631,0.02674-0.08444,0.09278-0.08429,0.14715   c0.00015,0.05322,0.03853,0.0751,0.08484,0.04836l2.05787-1.18811c0.04631-0.02674,0.08445-0.09279,0.0843-0.14601   c-0.00016-0.05437-0.03854-0.07624-0.08485-0.0495L35.63535,14.67914z"/><path class="st11" d="M35.63407,14.22679c-0.04631,0.02674-0.08445,0.09163-0.08429,0.14601   c0.00015,0.05322,0.03853,0.07509,0.08484,0.04835l2.05787-1.18811c0.04631-0.02674,0.08445-0.09279,0.0843-0.146   c-0.00016-0.05438-0.03854-0.07509-0.08485-0.04836L35.63407,14.22679z"/><path class="st11" d="M35.63279,13.7733c-0.04631,0.02674-0.08445,0.09162-0.08429,0.146   c0.00015,0.05322,0.03853,0.07509,0.08485,0.04835l2.05787-1.18811c0.04631-0.02674,0.08445-0.09279,0.0843-0.146   c-0.00016-0.05438-0.03854-0.07509-0.08485-0.04835L35.63279,13.7733z"/><path class="st11" d="M35.63021,12.86631c-0.04631,0.02674-0.08445,0.09163-0.08429,0.146   c0.00015,0.05322,0.03853,0.0751,0.08485,0.04836l2.05787-1.18811c0.04631-0.02674,0.08445-0.09279,0.0843-0.14601   c-0.00016-0.05437-0.03854-0.07509-0.08485-0.04835L35.63021,12.86631z"/><path class="st11" d="M35.6315,13.31981c-0.04631,0.02674-0.08445,0.09163-0.08429,0.146   c0.00015,0.05322,0.03853,0.07509,0.08485,0.04835l2.05787-1.18811c0.04631-0.02674,0.08445-0.09279,0.0843-0.146   c-0.00016-0.05437-0.03854-0.07509-0.08485-0.04835L35.6315,13.31981z"/><g><g><g><g><g><g><g><g><g><g><polygon class="st9" points="24.29911,16.80252 25.54302,16.07965 25.52678,48.27712 24.28287,49            "/></g><g><polygon class="st9" points="11.44967,9.3839 12.69358,8.66102 25.54302,16.07965 24.29911,16.80252            "/></g><path class="st12" d="M11.45351,9.38748l-0.01825,32.19585l12.84537,7.4151l0.01831-32.19585L11.45351,9.38748z             M22.79607,45.03695l-10.03228-5.79163l0.00877-28.23243l10.04116,5.79163L22.79607,45.03695z"/></g></g><polygon class="st19" points="12.77665,11.01091 12.76282,40.46312 22.79475,46.25541 22.80931,16.80252         "/></g></g></g></g></g></g><g><polygon class="st19" points="15.12615,41.82765 22.79858,37.54531 22.79912,36.54334 14.10068,41.23561    "/><polygon class="st19" points="12.7628,40.46309 12.96103,40.57752 22.79972,35.42976 22.80104,32.89528 12.76394,38.12234    "/><polygon class="st19" points="22.80451,26.08475 12.7673,30.09503 12.76682,31.09694 22.80397,27.08672    "/><polygon class="st19" points="22.80643,22.43669 12.7691,26.44697 12.76784,28.98139 22.80511,24.97116    "/><polygon class="st19" points="21.60534,16.10747 12.7724,19.63649 12.77192,20.63846 22.63087,16.69945    "/><polygon class="st19" points="17.87138,13.95194 12.77419,15.98843 12.77299,18.52291 20.4655,15.44944    "/></g></g><g><g><g class="st8"><g><path class="st0" d="M23.99312,32.69825l-0.56416,0.3243c-0.0402,0.02412-0.07504,0.02545-0.10184,0.01071l-0.32831-0.19028       l0.00134,0.26399c0.00133,0.134,0.04824,0.22915,0.12597,0.27472l-0.47304-0.27472       c-0.07638-0.04556-0.12462-0.13936-0.12462-0.27471l-0.00402-2.23357c-0.00133-0.27204,0.19029-0.60302,0.42614-0.73837       l0.56416-0.32563l0.4717,0.27337l-0.56282,0.32563c-0.23719,0.13669-0.42748,0.46768-0.42748,0.73971l0.00268,1.85166       l0.52127-0.30151L23.99312,32.69825z"/></g></g></g><g><path class="st6" d="M23.9868,29.80869l0.00093,0.32738L23.4239,30.4616c-0.07871,0.04545-0.14181,0.15573-0.14156,0.24618     l0.00406,2.23419c0.00026,0.09045,0.06377,0.12664,0.14248,0.0812l0.56383-0.32552l0.00093,0.32837l-0.56383,0.32553     c-0.23614,0.13633-0.42841,0.02578-0.42918-0.24458l-0.00406-2.23419c-0.00077-0.27134,0.19025-0.60221,0.42639-0.73854     L23.9868,29.80869z"/></g></g></g></svg>