<?xml version="1.0" ?><svg id="Layer_1" style="enable-background:new 0 0 50 50;" version="1.1" viewBox="0 0 50 50" xml:space="preserve" xmlns="http://www.w3.org/2000/svg" xmlns:xlink="http://www.w3.org/1999/xlink"><style type="text/css">
	.st0{fill:#B7C5FD;}
	.st1{fill:#9AADFD;}
	.st2{fill:#FFFFFF;}
	.st3{fill:#3955D1;}
	.st4{fill:#4466FB;}
	.st5{fill:#AABAFD;}
	.st6{fill:#798FFE;}
	.st7{fill:#6BB5FB;}
	.st8{enable-background:new    ;}
	.st9{fill:#1B2A4F;}
	.st10{fill:url(#);}
	.st11{fill:#384E85;}
	.st12{fill:#2E4277;}
	.st13{fill:#D9DDF6;}
	.st14{fill:#535D88;}
	.st15{fill:#2B3C67;}
	.st16{fill:#8FCCFF;}
	.st17{fill:#8CA1FD;}
	.st18{opacity:0.3;}
	.st19{opacity:0.3;fill:#4466FB;}
	.st20{opacity:0.2;}
</style><g><g><g><polygon class="st4" points="37.01168,6.81767 36.22741,6.3619 36.22741,35.43367 37.01168,35.88944    "/></g><g><polygon class="st3" points="37.01168,35.88944 37.7973,35.43288 37.71503,6.40896 37.01168,6.81767    "/></g></g><g><g class="st8"><g><polygon class="st3" points="43.09729,37.3842 43.0941,38.51136 25.0456,49 25.0488,47.87284     "/></g><g><polygon class="st4" points="25.0488,47.87284 25.0456,49 14.24952,42.76688 14.25272,41.63972     "/></g><g><polygon class="st7" points="43.09729,37.3842 25.0488,47.87284 14.25272,41.63972 32.30121,31.15108     "/></g></g></g><g><g class="st8"><g><polygon class="st4" points="32.45528,26.29759 31.67101,25.84182 31.68506,30.79992 32.46933,31.25569     "/></g><g><polygon class="st4" points="32.43922,20.63379 31.65495,20.17802 31.66901,25.13612 32.45328,25.59189     "/></g><g><polygon class="st4" points="32.42316,14.96996 31.63889,14.51419 31.65295,19.47229 32.43722,19.92806     "/></g><g><polygon class="st7" points="32.46933,31.25569 31.68506,30.79992 14.86486,40.5794 15.64913,41.03517     "/></g><g><polygon class="st4" points="32.40711,9.30704 31.62284,8.85127 31.6369,13.80937 32.42117,14.26514     "/></g><g><polygon class="st7" points="32.45328,25.59189 31.66901,25.13612 14.8488,34.91561 15.63307,35.37138     "/></g><g><polygon class="st4" points="32.39105,3.64324 31.60678,3.18748 31.62084,8.14557 32.40511,8.60134     "/></g><g><polygon class="st7" points="32.43722,19.92806 31.65295,19.47229 14.83275,29.25177 15.61701,29.70754     "/></g><g><polygon class="st7" points="32.42117,14.26514 31.6369,13.80937 14.81669,23.58885 15.60096,24.04462     "/></g><g><polygon class="st7" points="32.40511,8.60134 31.62084,8.14557 14.80063,17.92506 15.5849,18.38083     "/></g><g><polygon class="st7" points="33.0032,2.58293 32.21893,2.12716 14.17043,12.6158 14.9547,13.07157     "/></g><g><path class="st3" d="M33.08548,31.60685L15.03699,42.09549L14.9547,13.07157L33.0032,2.58293L33.08548,31.60685z       M15.60096,24.04462l16.82021-9.77949l-0.01406-4.9581l-16.8202,9.77949L15.60096,24.04462 M15.64913,41.03517l16.82021-9.77949      l-0.01406-4.9581l-16.8202,9.77948L15.64913,41.03517 M15.61701,29.70754l16.82021-9.77949l-0.01406-4.9581l-16.82021,9.77949      L15.61701,29.70754 M15.5849,18.38083l16.82021-9.77949l-0.01406-4.9581l-16.82021,9.77949L15.5849,18.38083 M15.63307,35.37138      l16.82021-9.77949l-0.01406-4.9581l-16.82021,9.77949L15.63307,35.37138"/></g><g><polygon class="st4" points="14.9547,13.07157 14.17043,12.6158 14.25272,41.63972 15.03699,42.09549     "/></g></g></g><g><g><g class="st8"><g><polygon class="st7" points="39.42566,33.27254 17.69762,45.89949 6.90154,39.66637 28.62957,27.03942      "/></g></g></g><g><polygon class="st4" points="17.69762,45.89949 17.69443,47.02666 6.89834,40.79354 6.90154,39.66637    "/></g><polygon class="st3" points="39.42566,33.27254 39.42246,34.3997 17.69443,47.02666 17.69762,45.89949   "/></g><g><g><g class="st8"><g><path class="st11" d="M30.38312,35.54442l-9.78485-5.64989c-0.06382-0.03695-0.12428-0.04031-0.16795-0.01679l-11.83721,6.8793       c0.04367-0.02351,0.10413-0.02015,0.17131,0.01679l9.78148,5.64988c0.07746,0.04369,0.14343,0.12709,0.1871,0.21845       l11.83676-6.87904C30.5261,35.67194,30.46029,35.58794,30.38312,35.54442z"/><path class="st12" d="M18.77768,44.73807c0,0.07391-0.02688,0.12765-0.06718,0.15116l11.83721-6.87928       c0.04031-0.02351,0.06718-0.07725,0.06718-0.15116l0.00672-1.90456c0-0.06075-0.02136-0.12746-0.05185-0.1911       l-11.83676,6.87904c0.03018,0.06314,0.0514,0.12957,0.0514,0.19135L18.77768,44.73807z"/></g><g><path class="st9" d="M18.54653,42.42322c0.13082,0.07553,0.2377,0.26066,0.23728,0.41097l-0.00539,1.90247       c-0.00043,0.1528-0.10801,0.21164-0.23883,0.13611L8.75581,39.2241c-0.13082-0.07553-0.23771-0.25819-0.23728-0.41099       l0.00539-1.90247c0.00043-0.15031,0.10801-0.21162,0.23883-0.13609L18.54653,42.42322z"/></g></g></g><g><g><polygon class="st11" points="18.43023,42.76231 18.42022,44.39231 8.88024,38.88231 8.88024,37.25236     "/></g></g><g><polygon class="st7" points="16.71879,42.31588 16.71721,42.87283 11.1176,39.63988 11.11918,39.08295    "/></g><g><polygon class="st9" points="10.70196,39.25428 10.7008,39.66336 9.11592,38.74833 9.11708,38.33925    "/></g><g><path class="st7" d="M17.69319,42.61681c0.2595,0.14982,0.46899,0.51266,0.46814,0.81084     c-0.00084,0.2982-0.2117,0.41835-0.4712,0.26852c-0.26164-0.15106-0.47113-0.51389-0.47028-0.81209     C17.22069,42.58591,17.43155,42.46576,17.69319,42.61681z"/></g><g><polygon class="st9" points="10.70386,38.58152 10.7027,38.99059 9.11783,38.07556 9.11899,37.66649    "/></g></g><g><g><g class="st8"><g><polygon class="st7" points="39.42566,21.8496 21.37716,32.33824 10.58108,26.10512 28.62957,15.61648      "/></g></g></g><g><polygon class="st4" points="21.37716,32.33824 21.37397,33.4654 10.57788,27.23228 10.58108,26.10512    "/></g><polygon class="st3" points="39.42566,21.8496 39.42246,22.97677 21.37397,33.4654 21.37716,32.33824   "/></g><g><g><g class="st8"><g><path class="st11" d="M33.64131,21.97938l-9.78485-5.64989c-0.06382-0.03695-0.12428-0.04031-0.16795-0.01679L11.8513,23.192       c0.04367-0.02352,0.10413-0.02015,0.17131,0.01679l9.78148,5.64989c0.07746,0.04369,0.14343,0.12709,0.1871,0.21845       l11.83676-6.87903C33.78429,22.1069,33.71848,22.0229,33.64131,21.97938z"/><path class="st12" d="M22.03588,31.17303c0,0.07391-0.02688,0.12764-0.06718,0.15116l11.83721-6.87928       c0.04031-0.02352,0.06718-0.07725,0.06718-0.15116l0.00673-1.90456c0-0.06075-0.02136-0.12746-0.05185-0.1911L21.9912,29.07712       c0.03018,0.06315,0.0514,0.12957,0.0514,0.19134L22.03588,31.17303z"/></g><g><path class="st9" d="M21.80472,28.85818c0.13082,0.07553,0.2377,0.26066,0.23728,0.41097l-0.00539,1.90247       c-0.00043,0.1528-0.10801,0.21164-0.23883,0.13611L12.014,25.65906c-0.13082-0.07553-0.23771-0.25819-0.23728-0.41099       l0.00539-1.90247c0.00043-0.15031,0.10801-0.21162,0.23883-0.13609L21.80472,28.85818z"/></g></g></g><g><g><polygon class="st11" points="21.68842,29.19727 21.67841,30.82727 12.13843,25.31726 12.13843,23.68732     "/></g></g><g><polygon class="st7" points="19.97698,28.75084 19.9754,29.30778 14.37579,26.07484 14.37737,25.5179    "/></g><g><polygon class="st9" points="13.96015,25.68924 13.95899,26.09832 12.37411,25.18329 12.37527,24.77421    "/></g><g><path class="st7" d="M20.95138,29.05177c0.2595,0.14982,0.46899,0.51266,0.46814,0.81084     c-0.00084,0.2982-0.2117,0.41835-0.4712,0.26853c-0.26164-0.15106-0.47113-0.5139-0.47028-0.81209     C20.47889,29.02086,20.68974,28.90071,20.95138,29.05177z"/></g><g><polygon class="st9" points="13.96206,25.01648 13.9609,25.42555 12.37602,24.51052 12.37718,24.10145    "/></g></g><g><g class="st8"><g><polygon class="st4" points="42.46709,32.07494 41.68282,31.61917 41.69688,36.57727 42.48115,37.03304     "/></g><g><polygon class="st4" points="42.45103,26.41115 41.66676,25.95538 41.68082,30.91348 42.46509,31.36924     "/></g><g><polygon class="st4" points="42.43498,20.74731 41.65071,20.29154 41.66476,25.24964 42.44903,25.70541     "/></g><g><polygon class="st7" points="42.48115,37.03304 41.69688,36.57727 24.87667,46.35676 25.66094,46.81252     "/></g><g><polygon class="st4" points="42.41892,15.08439 41.63465,14.62862 41.64871,19.58672 42.43298,20.04249     "/></g><g><polygon class="st7" points="42.46509,31.36924 41.68082,30.91348 24.86061,40.69296 25.64489,41.14873     "/></g><g><polygon class="st4" points="42.40287,9.4206 41.6186,8.96483 41.63265,13.92293 42.41692,14.37869     "/></g><g><polygon class="st7" points="42.44903,25.70541 41.66476,25.24964 24.84456,35.02913 25.62883,35.48489     "/></g><g><polygon class="st7" points="42.43298,20.04249 41.64871,19.58672 24.8285,29.36621 25.61277,29.82198     "/></g><g><polygon class="st7" points="42.41692,14.37869 41.63265,13.92293 24.81245,23.70241 25.59672,24.15818     "/></g><g><polygon class="st7" points="43.01501,8.36028 42.23074,7.90452 24.18225,18.39315 24.96652,18.84892     "/></g><g><path class="st3" d="M43.0217,7.23731L24.97165,17.71729l0.08002,30.15997l18.04999-10.48999L43.0217,7.23731z M42.4017,9.4173      l0.01996,4.95996l-16.82001,9.78003l-0.01996-4.96002L42.4017,9.4173z M42.42166,15.08728l0.01001,4.96002l-16.82001,9.76996      l-0.01001-4.94995L42.42166,15.08728z M42.43167,20.74732l0.02002,4.95996l-16.82001,9.78003l-0.02002-4.96002      L42.43167,20.74732z M25.63169,36.18732l16.82001-9.78003l0.01001,4.96002L25.6417,41.14728L25.63169,36.18732z       M25.66165,46.81726L25.6517,41.8573l16.81994-9.78003l0.01001,4.96002L25.66165,46.81726z"/></g><g><polygon class="st4" points="24.96652,18.84892 24.18225,18.39315 24.26453,47.41707 25.0488,47.87284     "/></g></g></g><g><g><g class="st8"><g><polygon class="st7" points="43.0182,7.23312 24.96971,17.72176 14.17363,11.48864 32.22212,1      "/></g></g></g><g><g><polygon class="st4" points="40.4035,6.73889 38.79221,6.90725 37.409,6.10865 37.69688,5.17622     "/></g><g><polygon class="st3" points="40.4035,6.73889 39.01194,7.54757 36.30532,5.98491 37.69688,5.17622 37.409,6.10865       38.79221,6.90725     "/></g><g><polygon class="st4" points="35.12236,3.68982 33.51108,3.85819 32.12786,3.05959 32.41576,2.12716     "/></g><g><polygon class="st3" points="35.12236,3.68982 33.7308,4.49851 31.0242,2.93585 32.41576,2.12716 32.12786,3.05959       33.51108,3.85819     "/></g></g><g><polygon class="st4" points="24.96971,17.72176 24.96652,18.84892 14.17043,12.6158 14.17363,11.48864    "/></g></g></g></svg>