<?xml version="1.0" ?><svg id="Layer_1" style="enable-background:new 0 0 50 50;" version="1.1" viewBox="0 0 50 50" xml:space="preserve" xmlns="http://www.w3.org/2000/svg" xmlns:xlink="http://www.w3.org/1999/xlink"><style type="text/css">
	.st0{fill:#B7C5FD;}
	.st1{fill:#9AADFD;}
	.st2{fill:#FFFFFF;}
	.st3{fill:#3955D1;}
	.st4{fill:#4466FB;}
	.st5{fill:#AABAFD;}
	.st6{fill:#798FFE;}
	.st7{fill:#6BB5FB;}
	.st8{enable-background:new    ;}
	.st9{fill:#1B2A4F;}
	.st10{fill:url(#);}
	.st11{fill:#384E85;}
	.st12{fill:#2E4277;}
	.st13{fill:#D9DDF6;}
	.st14{fill:#535D88;}
	.st15{fill:#2B3C67;}
	.st16{fill:#8FCCFF;}
	.st17{fill:#8CA1FD;}
	.st18{opacity:0.3;}
	.st19{opacity:0.3;fill:#4466FB;}
	.st20{opacity:0.2;}
</style><g><g><g><g><polygon class="st12" points="14.16854,11.60781 14.09782,42.01771 13.07183,42.61396 13.14255,12.20405     "/><path class="st11" d="M10.79757,40.70855l0.07072-30.40989c-0.00083,0.2958,0.95182,1.04328,2.27427,1.90539l-0.07073,30.4099      C11.74938,41.75185,10.79673,41.00436,10.79757,40.70855z"/><polygon class="st9" points="21.45159,15.81268 21.38087,46.22258 14.09782,42.01771 14.16854,11.60781     "/><polygon class="st3" points="21.45159,17.68674 21.44362,18.62018 14.16058,14.41532 14.16854,13.48188     "/><polygon class="st3" points="21.45159,20.10352 21.44362,21.03696 14.16058,16.8321 14.16854,15.89866     "/><polygon class="st3" points="21.45159,22.52031 21.44362,23.45374 14.16058,19.24888 14.16854,18.31544     "/><polygon class="st3" points="21.45159,24.93709 21.44362,25.87053 14.16058,21.66566 14.16854,20.73222     "/><polygon class="st3" points="21.45159,27.35387 21.44362,28.28731 14.16058,24.08244 14.16854,23.149     "/><g><polygon class="st12" points="19.58544,28.75089 19.58043,29.33759 15.39156,26.91914 15.39656,26.33243      "/><polygon class="st12" points="19.58544,30.13169 19.58043,30.7184 15.39156,28.29995 15.39656,27.71324      "/><polygon class="st12" points="19.58544,32.8933 19.58043,33.48001 15.39156,31.06156 15.39656,30.47485      "/><polygon class="st12" points="19.58544,31.51249 19.58043,32.0992 15.39156,29.68075 15.39656,29.09404      "/><polygon class="st12" points="19.58544,35.65491 19.58043,36.24162 15.39156,33.82317 15.39656,33.23646      "/><polygon class="st12" points="19.58544,34.2741 19.58043,34.86081 15.39156,32.44236 15.39656,31.85565      "/><polygon class="st12" points="19.58544,37.03571 19.58043,37.62242 15.39156,35.20397 15.39656,34.61726      "/></g><g><polygon class="st12" points="39.75808,8.46421 39.68736,39.47002 23.8188,48.69182 23.88952,17.00629      "/><path class="st11" d="M23.88952,17.68601l-0.07072,30.4099c-0.3087,0.1794-1.95371-0.50577-3.45702-1.28111l0.07072-30.40989       C22.12755,17.27913,23.57062,17.87133,23.88952,17.68601z"/></g><path class="st11" d="M39.75808,8.46421l-15.86856,9.2218c-0.3189,0.18532-1.76197-0.40688-3.45702-1.2811l1.01908-0.59223      l-7.28304-4.20487l-1.02599,0.59624c-1.50786-0.98298-2.53497-1.81694-2.21607-2.00226l15.86856-9.2218L39.75808,8.46421z"/><g><g><polygon class="st4" points="14.16854,13.48188 14.16058,14.41532 13.13459,15.01156 13.14255,14.07812       "/></g><g><polygon class="st4" points="14.16854,15.89866 14.16058,16.8321 13.13459,17.42834 13.14255,16.4949       "/></g><g><polygon class="st4" points="14.16854,18.31544 14.16058,19.24888 13.13459,19.84512 13.14255,18.91168       "/></g><g><polygon class="st4" points="14.16854,20.73222 14.16058,21.66566 13.13459,22.2619 13.14255,21.32846       "/></g><g><polygon class="st4" points="14.16854,23.149 14.16058,24.08244 13.13459,24.67868 13.14255,23.74524       "/></g><g><path class="st7" d="M10.86032,13.10616l0.00796-0.93343c-0.00083,0.2958,0.95182,1.04328,2.27427,1.90539l-0.00797,0.93344        C11.81214,14.14945,10.85949,13.40197,10.86032,13.10616z"/></g><g><path class="st7" d="M10.86032,15.52294l0.00796-0.93343c-0.00083,0.2958,0.95182,1.04328,2.27427,1.90539l-0.00797,0.93344        C11.81214,16.56623,10.85949,15.81875,10.86032,15.52294z"/></g><g><path class="st7" d="M10.86032,17.93972l0.00796-0.93343c-0.00083,0.2958,0.95182,1.04328,2.27427,1.90539l-0.00797,0.93344        C11.81214,18.98301,10.85949,18.23553,10.86032,17.93972z"/></g><g><path class="st7" d="M10.86032,20.3565l0.00796-0.93343c-0.00083,0.2958,0.95182,1.04328,2.27427,1.90539l-0.00797,0.93344        C11.81214,21.3998,10.85949,20.65232,10.86032,20.3565z"/></g><g><path class="st7" d="M10.86032,22.77328l0.00796-0.93343c-0.00083,0.2958,0.95182,1.04328,2.27427,1.90539l-0.00797,0.93344        C11.81214,23.81658,10.85949,23.0691,10.86032,22.77328z"/></g><g><path class="st7" d="M23.88952,19.56007l-0.00786,0.89898c-0.3087,0.1794-1.95381-0.47131-3.45712-1.24664l0.00796-0.93343        C21.9358,19.0543,23.58082,19.73947,23.88952,19.56007z"/></g><g><path class="st7" d="M23.88952,21.97685l-0.00786,0.89898c-0.3087,0.1794-1.95381-0.47131-3.45712-1.24664l0.00796-0.93343        C21.9358,21.47108,23.58082,22.15625,23.88952,21.97685z"/></g><g><path class="st7" d="M23.88952,24.39364l-0.00786,0.89898c-0.3087,0.1794-1.95381-0.47131-3.45712-1.24664l0.00796-0.93343        C21.9358,23.88787,23.58082,24.57303,23.88952,24.39364z"/></g><g><path class="st7" d="M23.88952,26.81042l-0.00786,0.89898c-0.3087,0.1794-1.95381-0.47131-3.45712-1.24664l0.00796-0.93343        C21.9358,26.30465,23.58082,26.98981,23.88952,26.81042z"/></g><g><path class="st7" d="M23.88952,29.2272l-0.00786,0.89898c-0.3087,0.1794-1.95381-0.47131-3.45712-1.24664l0.00796-0.93343        C21.9358,28.72143,23.58082,29.4066,23.88952,29.2272z"/></g></g></g><g><g><g><g><polygon class="st9" points="38.61169,37.79124 38.19716,38.02889 38.18474,35.02203 38.59927,34.78437        "/></g><g><polygon class="st9" points="37.82892,38.24088 37.41082,38.48058 37.3984,35.47372 37.8165,35.23401        "/></g><g><polygon class="st9" points="37.04259,38.69257 36.62806,38.93023 36.61564,35.92336 37.03017,35.6857        "/></g><g><polygon class="st9" points="36.25985,39.1422 35.84532,39.37985 35.8329,36.37299 36.24743,36.13533        "/></g><g><polygon class="st9" points="35.4771,39.59182 35.05898,39.83154 35.04656,36.82468 35.46468,36.58496        "/></g></g><g><g><polygon class="st9" points="31.27753,41.99607 30.863,42.23373 30.85058,39.22687 31.26511,38.98921        "/></g><g><polygon class="st9" points="30.49476,42.44572 30.07667,42.68542 30.06425,39.67855 30.48234,39.43885        "/></g><g><polygon class="st9" points="29.70843,42.89741 29.2939,43.13507 29.28148,40.1282 29.69601,39.89054        "/></g><g><polygon class="st9" points="28.92569,43.34703 28.51116,43.58469 28.49874,40.57783 28.91327,40.34017        "/></g><g><polygon class="st9" points="28.14295,43.79667 27.72482,44.03638 27.7124,41.02951 28.13052,40.7898        "/></g></g></g><g><g><g><polygon class="st9" points="38.61169,32.23544 38.19716,32.47309 38.18474,29.46623 38.59927,29.22857        "/></g><g><polygon class="st9" points="37.82892,32.68508 37.41082,32.92478 37.3984,29.91792 37.8165,29.67821        "/></g><g><polygon class="st9" points="37.04259,33.13677 36.62806,33.37442 36.61564,30.36756 37.03017,30.1299        "/></g><g><polygon class="st9" points="36.25985,33.5864 35.84532,33.82405 35.8329,30.81719 36.24743,30.57953        "/></g><g><polygon class="st9" points="35.4771,34.03602 35.05898,34.27574 35.04656,31.26888 35.46468,31.02916        "/></g></g><g><g><polygon class="st9" points="31.27753,36.44028 30.863,36.67793 30.85058,33.67107 31.26511,33.43341        "/></g><g><polygon class="st9" points="30.49476,36.88992 30.07667,37.12962 30.06425,34.12276 30.48234,33.88305        "/></g><g><polygon class="st9" points="29.70843,37.34161 29.2939,37.57927 29.28148,34.5724 29.69601,34.33474        "/></g><g><polygon class="st9" points="28.92569,37.79124 28.51116,38.02889 28.49874,35.02203 28.91327,34.78437        "/></g><g><polygon class="st9" points="28.14295,38.24086 27.72482,38.48058 27.7124,35.47372 28.13052,35.234        "/></g></g></g></g></g></g><g><g><g><g><g><g><g><g><g><polygon class="st9" points="23.2014,18.0859 24.44558,17.36286 24.43,48.25695 23.18581,48.97999           "/></g><g><polygon class="st9" points="10.23836,10.60168 11.48254,9.87864 24.44558,17.36286 23.2014,18.0859           "/></g><path class="st12" d="M10.2422,10.60526l-0.0176,30.89247l12.95897,7.48069l0.01765-30.89247L10.2422,10.60526z            M21.7661,46.36595l-10.03452-5.79293l0.00877-28.23874l10.0434,5.79292L21.7661,46.36595z"/></g></g><polygon class="st19" points="11.74444,12.3323 11.73061,40.57392 21.76478,46.36751 21.77934,18.12521        "/></g></g></g></g></g><g><polygon class="st19" points="11.73059,40.57389 11.92886,40.68835 21.76975,36.75661 21.77107,34.22157 11.73173,38.23262         "/><g><g class="st8"><g><path class="st0" d="M22.96342,33.93107l-0.56429,0.32437c-0.04021,0.02412-0.07506,0.02546-0.10186,0.01072l-0.32839-0.19033        l0.00134,0.26405c0.00133,0.13403,0.04825,0.2292,0.12599,0.27478l-0.47315-0.27478        c-0.0764-0.04557-0.12465-0.13939-0.12465-0.27477l-0.00402-2.23408c-0.00133-0.27209,0.19033-0.60316,0.42623-0.73853        l0.56429-0.3257l0.47181,0.27343l-0.56295,0.3257c-0.23725,0.13672-0.42757,0.46779-0.42757,0.73988l0.00268,1.85208        l0.52139-0.30158L22.96342,33.93107z"/></g></g></g><g><path class="st6" d="M22.9571,31.04087l0.00093,0.32745l-0.56395,0.3256c-0.07873,0.04546-0.14184,0.15577-0.14159,0.24623      l0.00406,2.23469c0.00026,0.09047,0.06379,0.12667,0.14252,0.08122l0.56395-0.3256l0.00093,0.32844l-0.56396,0.3256      c-0.23619,0.13637-0.42851,0.02578-0.42927-0.24463l-0.00406-2.23469c-0.00077-0.2714,0.1903-0.60235,0.42649-0.73871      L22.9571,31.04087z"/></g></g></g><g><polygon class="st19" points="14.09447,41.93876 21.76861,38.87263 21.76915,37.87044 13.06877,41.34659   "/><polygon class="st19" points="21.77455,27.4095 11.73509,31.42068 11.73461,32.42282 21.77401,28.4117   "/><polygon class="st19" points="21.77646,23.76063 11.73689,27.77181 11.73563,30.30679 21.77515,26.29567   "/><polygon class="st19" points="20.5751,17.43 11.74018,20.95981 11.7397,21.962 21.60086,18.02211   "/><polygon class="st19" points="16.84031,15.27398 11.74198,17.31093 11.74078,19.84598 19.43501,16.77182   "/></g></g></svg>