<?xml version="1.0" ?><svg version="1.2" id="jj-logo" xmlns="http://www.w3.org/2000/svg" viewBox="0 0 1000 280" width="200" height="56"><path fill="#DA3D40" d="m130.71 225.71l-27.28-27.27q0-0.01 0-0.01h76.41v-103.68h27.28c0 0 0 59.4 0 98.19l-32.77 32.77zm330.37-116.97c10.68 10.41 17.29 25.87 17.29 46.13 0 20.26-6.61 35.71-17.29 46.13-10.69 10.41-25.47 15.79-41.91 15.79-16.44 0-31.22-5.38-41.91-15.79-10.68-10.42-17.29-25.87-17.29-46.13 0-20.26 6.61-35.72 17.29-46.13 10.69-10.41 25.47-15.79 41.91-15.79 16.44 0 31.22 5.38 41.91 15.79zm401.41-18.61q-8.23-7.14-22.76-7.15-11.77 0.01-18.3 5.07-6.59 5.11-6.59 14.42 0 6.67 3.47 10.89 3.42 4.18 10.27 7.59 6.77 3.37 20.96 8.6h0.01q14.98 5.85 23.95 10.62 8.92 4.74 15.31 13.26 6.38 8.48 6.38 21.16 0 12.48-6.28 22.05-6.29 9.58-18.03 14.86-11.78 5.29-27.76 5.29-15.99 0-28.09-5.4-12.05-5.39-18.55-15.18-6.49-9.79-6.49-22.71v-7.66h23.37v6.36q-0.01 10.17 8.71 16.92 8.64 6.7 22.95 6.7 13.05-0.01 19.69-5.74 6.69-5.76 6.69-14.84-0.01-6.23-3.69-10.56-3.63-4.29-10.37-7.81-6.67-3.48-20.01-8.7 0 0-0.01 0-14.98-5.64-24.27-10.63-9.23-4.95-15.42-13.46-6.16-8.49-6.16-21.17 0-18.93 13.39-29.9 13.45-11 35.93-10.99 15.77 0 27.86 5.61 12.07 5.6 18.78 15.62 6.7 10.01 6.7 23.13v5.92h-23.37v-4.61q0-10.38-8.27-17.56zm-318.54 18.35h1.52c7.2-9.6 18.63-15.53 34.94-15.53 14.12 0 25.51 4.23 33.38 12.18 7.88 7.95 12.27 19.65 12.27 34.71v74.96h-21.74v-71.71c0-9.84-2.46-17.37-7.24-22.42-4.78-5.03-11.84-7.55-20.88-7.55-10.09 0-18.19 3.05-23.74 9.4-5.05 5.79-7.99 14.26-8.51 25.47v66.53h-21.83v-119.76h21.83zm-194.95-13.73c0 0 0 63.58 0 98.2l-21.85 21.85c-10.29 0-22.53 0-32.81 0l-21.83-21.83q0 0 0 0h54.66v-98.22zm353.46 98.22l-21.83 21.83c0 0-10.89 0-21.8 0l-21.85-21.85v-130.94h21.83v32.74h32.74v21.83h-32.74v76.39h98.31v-130.96h21.83c0 0 0 88.7 0 130.94l-21.85 21.85c-10.29 0-22.53 0-32.81 0 0 0-21.83-21.83-21.83-21.83zm-213.17-98.22h21.83v119.77h-21.83zm-96.8 29.36c-6.6 7.05-10.44 17.44-10.44 30.75 0 13.3 3.84 23.69 10.44 30.74 6.57 7.02 15.86 10.69 26.68 10.69 10.82 0 20.11-3.67 26.68-10.69 6.61-7.05 10.45-17.44 10.45-30.74 0-13.31-3.84-23.7-10.45-30.75-6.57-7.01-15.86-10.69-26.68-10.69-10.82 0-20.11 3.68-26.68 10.69zm-299.99 63.38l-27.28-27.28q0 0 0 0h76.4v-103.69h27.29c0 0 0 59.4 0 98.2l-32.77 32.77zm396.79-125.48h21.82v21.82h-21.82zm-162.11 0h21.82v21.83h-21.82z" /></svg>
