<svg xmlns="http://www.w3.org/2000/svg" width="16.667" height="15" viewBox="0 0 16.667 15"><path d="M10.667,1.344l5.584,9.3a2.911,2.911,0,0,1-.881,3.925,2.678,2.678,0,0,1-1.453.43H2.748A2.8,2.8,0,0,1,0,12.151a2.933,2.933,0,0,1,.415-1.506L6,1.344A2.692,2.692,0,0,1,9.786.431a2.8,2.8,0,0,1,.881.913Zm-1.85.7a.9.9,0,0,0-1.262.3l-5.584,9.3a.975.975,0,0,0-.138.5.933.933,0,0,0,.917.95H13.917a.894.894,0,0,0,.484-.143A.97.97,0,0,0,14.7,11.65l-5.584-9.3a.933.933,0,0,0-.293-.3Zm-.483,9.623a.833.833,0,1,1,.833-.833A.833.833,0,0,1,8.333,11.667Zm0-7.5A.833.833,0,0,1,9.167,5V8.333a.833.833,0,0,1-1.667,0V5A.833.833,0,0,1,8.333,4.167Z" transform="translate(0 0)" fill="#1c1c1c"/></svg>